<svg width="28" height="29" viewBox="0 0 28 29" fill="none" xmlns="http://www.w3.org/2000/svg">
<path fill-rule="evenodd" clip-rule="evenodd" d="M7.82451 9.7254C8.37651 9.7254 8.82451 10.1734 8.82451 10.7254C8.82451 11.2774 8.37651 11.7254 7.82451 11.7254H6.58051C4.42184 11.7254 2.66718 13.4801 2.66718 15.6374V22.1374C2.66718 24.2961 4.42184 26.0507 6.58051 26.0507H21.4205C23.5778 26.0507 25.3338 24.2961 25.3338 22.1374V15.6254C25.3338 13.4747 23.5845 11.7254 21.4352 11.7254H20.1778C19.6258 11.7254 19.1778 11.2774 19.1778 10.7254C19.1778 10.1734 19.6258 9.7254 20.1778 9.7254H21.4352C24.6872 9.7254 27.3338 12.3721 27.3338 15.6254V22.1374C27.3338 25.3987 24.6805 28.0507 21.4205 28.0507H6.58051C3.32051 28.0507 0.667175 25.3987 0.667175 22.1374V15.6374C0.667175 12.3774 3.32051 9.7254 6.58051 9.7254H7.82451ZM14.708 0.962199L18.596 4.8662C18.9853 5.2582 18.984 5.8902 18.5933 6.27953C18.2013 6.66887 17.5693 6.66887 17.18 6.27687L14.9992 4.08853L15 18.7213H13L12.9992 4.08853L10.8213 6.27687C10.6266 6.4742 10.3693 6.57153 10.1133 6.57153C9.85864 6.57153 9.60264 6.4742 9.40798 6.27953C9.01731 5.8902 9.01464 5.2582 9.40531 4.8662L13.292 0.962199C13.6666 0.584866 14.3333 0.584866 14.708 0.962199Z" fill="#BEBEBE"/>
</svg>
