<svg width="276" height="242" viewBox="0 0 276 242" fill="none" xmlns="http://www.w3.org/2000/svg">
<g clip-path="url(#clip0_216_5508)">
<path d="M236.178 133.969L198.904 119.873C196.325 118.9 195.029 116.019 196.002 113.446L215.516 61.8503C216.49 59.2721 219.371 57.9752 221.944 58.9491L245.584 67.8884L256.753 93.6708L242.611 131.068C241.637 133.646 238.756 134.943 236.183 133.969H236.178Z" fill="#F5F5F5"/>
<path d="M245.584 67.8884L240.094 82.4095C239.187 84.8033 240.396 87.484 242.79 88.3861L256.753 93.6708L245.584 67.8884Z" fill="#EBEBEB"/>
<path d="M239.797 83.7525C239.797 83.7525 238.279 87.2072 241.852 89.8777C241.985 89.9803 242.129 90.0674 242.272 90.1545C243.974 91.1694 255.169 97.8431 255.271 97.5663C255.384 97.269 256.747 93.6656 256.747 93.6656L242.785 88.3862C242.785 88.3862 239.346 86.951 239.797 83.7525Z" fill="#E0E0E0"/>
<path d="M237.188 80.6361C237.116 80.8206 233.2 79.5135 228.438 77.7144C223.676 75.9153 219.873 74.3007 219.945 74.1162C220.017 73.9316 223.933 75.2387 228.694 77.0378C233.456 78.8369 237.259 80.4515 237.188 80.6361Z" fill="#E0E0E0"/>
<path d="M245.22 93.0557C245.148 93.2402 238.736 90.99 230.898 88.0274C223.061 85.0647 216.762 82.507 216.833 82.3224C216.905 82.1379 223.312 84.3881 231.155 87.3508C238.992 90.3134 245.286 92.8712 245.22 93.0557Z" fill="#E0E0E0"/>
<path d="M245.184 100.878C245.112 101.062 238.131 98.5966 229.586 95.3674C221.042 92.133 214.173 89.3652 214.245 89.1806C214.317 88.9961 221.298 91.4616 229.842 94.6959C238.387 97.9251 245.255 100.698 245.184 100.883V100.878Z" fill="#E0E0E0"/>
<path d="M242.739 107.346C242.667 107.531 235.686 105.065 227.141 101.836C218.597 98.6068 211.728 95.8338 211.8 95.6493C211.872 95.4648 218.853 97.9302 227.398 101.165C235.942 104.394 242.811 107.167 242.739 107.351V107.346Z" fill="#E0E0E0"/>
<path d="M240.294 113.815C240.222 113.999 233.241 111.534 224.696 108.305C216.152 105.07 209.283 102.302 209.355 102.118C209.427 101.933 216.408 104.399 224.952 107.633C233.497 110.862 240.366 113.635 240.294 113.82V113.815Z" fill="#E0E0E0"/>
<path d="M237.849 120.284C237.777 120.468 230.796 118.003 222.251 114.773C213.707 111.544 206.838 108.771 206.91 108.587C206.982 108.402 213.963 110.868 222.508 114.102C231.052 117.331 237.921 120.104 237.849 120.289V120.284Z" fill="#E0E0E0"/>
<path d="M63.2622 68.6267L22.3632 82.9494C20.9491 83.4446 20.2042 84.9924 20.6994 86.4065L41.2197 145.003C41.7149 146.418 43.2627 147.162 44.6768 146.667L85.5759 132.345C86.99 131.849 87.7349 130.302 87.2397 128.887L66.7194 70.2906C66.2241 68.8764 64.6763 68.1315 63.2622 68.6267Z" fill="#EBEBEB"/>
<path d="M63.7867 72.2732L24.2242 86.1278L44.5627 144.205L84.1251 130.351L63.7867 72.2732Z" fill="#E0E0E0"/>
<path d="M63.0829 71.9957L23.5205 85.8503L43.4712 142.821L83.0337 128.966L63.0829 71.9957Z" fill="#FAFAFA"/>
<path d="M83.0255 128.971C82.8591 128.493 74.827 105.625 63.024 72.0208L63.0965 72.0549C51.0973 76.2565 37.6735 80.9615 23.5415 85.9096H23.5372L23.5756 85.8328C31.0319 107.233 37.972 126.996 43.5131 142.804L43.4491 142.775C67.5114 134.38 82.6373 129.103 83.0255 128.967C82.6373 129.103 67.5242 134.414 43.4832 142.868L43.4363 142.885L43.4192 142.839C37.8782 127.026 30.9551 107.263 23.4604 85.8712L23.4391 85.8115L23.4988 85.7902H23.5031C37.6351 80.8421 51.0632 76.1414 63.0624 71.944L63.1179 71.9269L63.1349 71.9824C74.8739 105.608 82.8634 128.493 83.0298 128.971H83.0255Z" fill="#E0E0E0"/>
<path d="M68.9959 133.885C68.9959 133.885 77.8044 126.454 79.3315 118.716C79.3315 118.716 76.8873 122.551 71.7984 123.251C71.7984 123.251 71.6235 131.377 68.9916 133.885H68.9959Z" fill="#E0E0E0"/>
<path d="M37.0406 98.5446L34.9593 99.2735C34.1988 99.5398 33.7983 100.372 34.0646 101.133L34.7935 103.214C35.0598 103.974 35.8921 104.375 36.6525 104.109L38.7339 103.38C39.4943 103.113 39.8948 102.281 39.6286 101.521L38.8997 99.4393C38.6334 98.6789 37.8011 98.2783 37.0406 98.5446Z" fill="#EBEBEB"/>
<path d="M36.7862 102.132C36.7563 102.14 36.7179 102.136 36.6923 102.123L35.7368 101.569C35.6814 101.535 35.66 101.462 35.6942 101.407C35.7283 101.351 35.8008 101.33 35.8563 101.364L36.6966 101.85L37.7033 99.6961C37.7331 99.6364 37.8014 99.6108 37.8611 99.6406C37.9208 99.6705 37.9464 99.7388 37.9166 99.7985L36.8544 102.072C36.8416 102.102 36.816 102.123 36.7862 102.136V102.132Z" fill="white"/>
<path d="M64.1031 89.7316C64.1159 89.7658 58.9759 91.5914 52.6286 93.8138C46.2771 96.0362 41.1243 97.815 41.1115 97.7809C41.0987 97.7467 46.2387 95.921 52.586 93.6987C58.9332 91.4763 64.0904 89.7018 64.0989 89.7316H64.1031Z" fill="#E0E0E0"/>
<path d="M52.04 97.9259C52.04 97.9259 51.912 97.9899 51.6689 98.0837C51.4044 98.1818 51.0589 98.3098 50.6366 98.4676C49.7622 98.7833 48.555 99.2141 47.2199 99.6833C45.8805 100.153 44.669 100.571 43.7903 100.865C43.3637 101.006 43.014 101.121 42.7452 101.21C42.4978 101.287 42.3613 101.33 42.3571 101.321C42.3571 101.313 42.485 101.257 42.7282 101.163C42.9926 101.065 43.3381 100.937 43.7604 100.78C44.6349 100.464 45.8421 100.033 47.1815 99.5639C48.5166 99.0947 49.7323 98.6766 50.611 98.3823C51.0376 98.2415 51.3874 98.1264 51.6561 98.0368C51.9035 97.96 52.04 97.9173 52.0443 97.9259H52.04Z" fill="#E0E0E0"/>
<path d="M64.6535 91.2971C64.6663 91.3312 59.5262 93.1569 53.179 95.3793C46.8275 97.6017 41.6746 99.3804 41.6618 99.3463C41.649 99.3122 46.7891 97.4865 53.1363 95.2641C59.4836 93.0417 64.6407 91.2672 64.6492 91.2971H64.6535Z" fill="#E0E0E0"/>
<path d="M40.0118 107.032L37.9304 107.761C37.17 108.028 36.7695 108.86 37.0358 109.62L37.7646 111.702C38.0309 112.462 38.8633 112.863 39.6237 112.596L41.7051 111.867C42.4655 111.601 42.866 110.769 42.5997 110.008L41.8709 107.927C41.6046 107.167 40.7722 106.766 40.0118 107.032Z" fill="#EBEBEB"/>
<path d="M39.7592 110.62C39.7293 110.629 39.6909 110.625 39.6653 110.612L38.7098 110.057C38.6544 110.023 38.6331 109.951 38.6672 109.895C38.7013 109.84 38.7738 109.818 38.8293 109.853L39.6696 110.339L40.6763 108.185C40.7062 108.125 40.7744 108.099 40.8341 108.129C40.8938 108.159 40.9194 108.227 40.8896 108.287L39.8274 110.561C39.8146 110.591 39.789 110.612 39.7592 110.625V110.62Z" fill="white"/>
<path d="M67.0763 98.2202C67.0891 98.2543 61.9491 100.08 55.6018 102.302C49.2503 104.525 44.0974 106.304 44.0846 106.269C44.0719 106.235 49.2119 104.41 55.5592 102.187C61.9064 99.9649 67.0635 98.1904 67.0721 98.2202H67.0763Z" fill="#E0E0E0"/>
<path d="M55.0132 106.414C55.0132 106.414 54.8852 106.478 54.642 106.572C54.3776 106.67 54.0321 106.798 53.6098 106.956C52.7353 107.272 51.5281 107.703 50.193 108.172C48.8536 108.641 47.6422 109.059 46.7634 109.353C46.3369 109.494 45.9871 109.609 45.7184 109.699C45.471 109.776 45.3345 109.818 45.3302 109.81C45.3302 109.801 45.4582 109.746 45.7013 109.652C45.9658 109.554 46.3113 109.426 46.7336 109.268C47.608 108.953 48.8152 108.522 50.1546 108.052C51.4898 107.583 52.7055 107.165 53.5842 106.871C54.0107 106.73 54.3605 106.615 54.6292 106.525C54.8767 106.449 55.0131 106.406 55.0174 106.414H55.0132Z" fill="#E0E0E0"/>
<path d="M67.6266 99.7857C67.6394 99.8198 62.4993 101.646 56.1521 103.868C49.8006 106.09 44.6477 107.869 44.6349 107.835C44.6221 107.801 49.7622 105.975 56.1094 103.753C62.4567 101.53 67.6138 99.7558 67.6223 99.7857H67.6266Z" fill="#E0E0E0"/>
<path d="M42.9874 115.52L40.906 116.249C40.1456 116.515 39.745 117.348 40.0113 118.108L40.7402 120.189C41.0065 120.95 41.8388 121.35 42.5992 121.084L44.6806 120.355C45.441 120.089 45.8416 119.257 45.5753 118.496L44.8464 116.415C44.5801 115.654 43.7478 115.254 42.9874 115.52Z" fill="#EBEBEB"/>
<path d="M42.7325 119.109C42.7026 119.117 42.6642 119.113 42.6386 119.1L41.6831 118.546C41.6277 118.512 41.6064 118.439 41.6405 118.384C41.6746 118.328 41.7471 118.307 41.8026 118.341L42.6429 118.827L43.6496 116.673C43.6795 116.614 43.7477 116.588 43.8074 116.618C43.8671 116.648 43.8927 116.716 43.8629 116.776L42.8007 119.049C42.7879 119.079 42.7623 119.1 42.7325 119.113V119.109Z" fill="white"/>
<path d="M70.0495 106.709C70.0623 106.743 64.9222 108.569 58.575 110.791C52.2235 113.013 47.0706 114.792 47.0578 114.758C47.045 114.724 52.1851 112.898 58.5323 110.676C64.8796 108.453 70.0367 106.679 70.0452 106.709H70.0495Z" fill="#E0E0E0"/>
<path d="M57.9863 114.903C57.9863 114.903 57.8584 114.967 57.6152 115.061C57.3507 115.159 57.0052 115.287 56.5829 115.445C55.7085 115.76 54.5013 116.191 53.1662 116.66C51.8268 117.13 50.6153 117.548 49.7366 117.842C49.3101 117.983 48.9603 118.098 48.6915 118.188C48.4441 118.264 48.3076 118.307 48.3034 118.298C48.3034 118.29 48.4313 118.234 48.6745 118.141C48.939 118.043 49.2845 117.915 49.7068 117.757C50.5812 117.441 51.7884 117.01 53.1278 116.541C54.4629 116.072 55.6786 115.654 56.5573 115.359C56.9839 115.219 57.3337 115.104 57.6024 115.014C57.8498 114.937 57.9863 114.894 57.9906 114.903H57.9863Z" fill="#E0E0E0"/>
<path d="M70.5998 108.274C70.6126 108.308 65.4725 110.134 59.1253 112.356C52.7737 114.579 47.6209 116.358 47.6081 116.323C47.5953 116.289 52.7354 114.464 59.0826 112.241C65.4298 110.019 70.587 108.244 70.5955 108.274H70.5998Z" fill="#E0E0E0"/>
<path d="M45.9587 124.012L43.8773 124.741C43.1169 125.007 42.7163 125.839 42.9826 126.6L43.7115 128.681C43.9778 129.442 44.8101 129.842 45.5705 129.576L47.6519 128.847C48.4123 128.581 48.8129 127.748 48.5466 126.988L47.8177 124.907C47.5514 124.146 46.7191 123.746 45.9587 124.012Z" fill="#EBEBEB"/>
<path d="M45.7014 127.598C45.6715 127.606 45.6331 127.602 45.6075 127.585L44.652 127.03C44.5966 126.996 44.5752 126.924 44.6094 126.868C44.6435 126.813 44.716 126.791 44.7715 126.825L45.6118 127.312L46.6185 125.158C46.6483 125.098 46.7166 125.072 46.7763 125.102C46.836 125.132 46.8616 125.2 46.8317 125.26L45.7696 127.534C45.7568 127.563 45.7312 127.585 45.7014 127.598Z" fill="white"/>
<path d="M73.0226 115.193C73.0354 115.227 67.8954 117.053 61.5481 119.275C55.1966 121.498 50.0438 123.276 50.031 123.242C50.0182 123.208 55.1582 121.383 61.5055 119.16C67.8527 116.938 73.0098 115.163 73.0184 115.193H73.0226Z" fill="#E0E0E0"/>
<path d="M60.9594 123.392C60.9594 123.392 60.8314 123.456 60.5883 123.549C60.3238 123.648 59.9783 123.776 59.556 123.933C58.6816 124.249 57.4744 124.68 56.1393 125.149C54.7999 125.618 53.5884 126.036 52.7097 126.331C52.2831 126.471 51.9334 126.587 51.6646 126.676C51.4172 126.753 51.2807 126.796 51.2765 126.787C51.2765 126.779 51.4044 126.723 51.6476 126.629C51.912 126.531 52.2576 126.403 52.6798 126.245C53.5543 125.93 54.7615 125.499 56.1009 125.03C57.436 124.56 58.6517 124.142 59.5304 123.848C59.957 123.707 60.3068 123.592 60.5755 123.503C60.8229 123.426 60.9594 123.383 60.9637 123.392H60.9594Z" fill="#E0E0E0"/>
<path d="M73.5729 116.763C73.5857 116.797 68.4456 118.623 62.0984 120.845C55.7469 123.067 50.594 124.846 50.5812 124.812C50.5684 124.778 55.7085 122.952 62.0557 120.73C68.403 118.507 73.5601 116.733 73.5686 116.763H73.5729Z" fill="#E0E0E0"/>
<path d="M27.999 80.3046L29.044 83.2863C29.6498 85.0181 31.5437 85.9267 33.2755 85.321L55.1581 77.6599C56.89 77.0542 57.7986 75.1603 57.1928 73.4284L56.152 70.451L28.0032 80.3004L27.999 80.3046Z" fill="#E0E0E0"/>
<path d="M42.3656 76.2608C40.7447 76.8281 38.9659 75.9707 38.3986 74.3498C37.8313 72.7289 38.6887 70.9501 40.3096 70.3828C41.9305 69.8154 43.7093 70.6728 44.2766 72.2938C44.8439 73.9147 43.9866 75.6935 42.3656 76.2608ZM40.702 71.5132C39.7039 71.8629 39.1749 72.9592 39.5247 73.9574C39.8745 74.9555 40.9708 75.4844 41.9689 75.1347C42.9671 74.7849 43.496 73.6886 43.1462 72.6905C42.7964 71.6923 41.7002 71.1634 40.702 71.5132Z" fill="#E0E0E0"/>
<path d="M59.8546 83.9986C59.8759 84.0541 54.1045 86.1272 46.9682 88.6268C39.8318 91.1265 34.0305 93.1057 34.0092 93.0503C33.9879 92.9948 39.7593 90.9217 46.8956 88.4221C54.032 85.9224 59.8333 83.9432 59.8546 83.9986Z" fill="#E0E0E0"/>
<path d="M52.4666 85.0565C52.4879 85.1119 49.9456 86.0547 46.7933 87.1594C43.641 88.2642 41.0688 89.1131 41.0475 89.0576C41.0262 89.0022 43.5685 88.0595 46.7208 86.9547C49.8731 85.8499 52.4452 85.001 52.4666 85.0565Z" fill="#E0E0E0"/>
<path d="M233.833 194.67C236.28 193.409 239.164 193.246 241.884 193.695C243.342 193.934 244.869 194.37 245.858 195.468C246.853 196.565 247.037 198.495 245.899 199.435C245.217 199.994 244.27 200.083 243.39 200.069C241.263 200.042 238.905 199.667 237.2 200.949C236.232 201.678 235.585 202.891 234.426 203.253C233.294 203.607 232.013 202.932 231.413 201.91C230.813 200.887 230.793 199.606 231.072 198.454C231.072 198.454 231.365 195.938 233.833 194.663V194.67Z" fill="url(#paint0_linear_216_5508)"/>
<path d="M228.23 183.838C229.729 185.979 232.633 185.27 233.983 183.961C235.333 182.659 235.905 180.764 236.423 178.957C237.61 174.833 238.803 170.511 237.923 166.312C237.657 165.058 237.187 163.803 236.308 162.876C235.428 161.942 234.072 161.39 232.831 161.717C231.365 162.106 230.452 163.544 229.791 164.908C227.855 168.923 226.825 173.381 226.812 177.839C226.805 179.925 227.05 182.107 228.223 183.825" fill="url(#paint1_linear_216_5508)"/>
<path d="M224.112 186.906C225.735 184.977 226.048 182.161 225.325 179.748C224.603 177.328 222.967 175.276 221.085 173.599C218.877 171.629 216.279 170.102 213.491 169.121C212.394 168.732 211.235 168.432 210.076 168.541C208.917 168.65 207.752 169.243 207.213 170.273C206.415 171.8 207.179 173.647 208.011 175.153C209.469 177.812 211.14 180.355 213.001 182.747C214.493 184.677 216.204 186.579 218.488 187.444C220.772 188.31 223.13 188.215 224.344 186.633" fill="url(#paint2_linear_216_5508)"/>
<path d="M228.127 216.096C228.127 216.096 228.202 215.748 228.264 215.121C228.332 214.412 228.42 213.526 228.523 212.469C228.645 211.351 228.809 210.029 229.116 208.577C229.422 207.132 229.906 205.57 230.527 203.989C231.168 202.414 231.952 200.983 232.872 199.837C233.778 198.685 234.842 197.854 235.837 197.377C236.826 196.886 237.719 196.688 238.332 196.599C238.952 196.538 239.3 196.484 239.3 196.456C239.3 196.429 238.952 196.422 238.318 196.443C237.685 196.484 236.764 196.647 235.714 197.118C234.665 197.581 233.54 198.426 232.586 199.606C231.624 200.778 230.813 202.237 230.159 203.846C229.525 205.461 229.048 207.036 228.754 208.509C228.461 209.981 228.325 211.324 228.236 212.449C228.155 213.574 228.12 214.487 228.107 215.114C228.093 215.741 228.1 216.096 228.127 216.096Z" fill="#616161"/>
<path d="M228.304 214.051C228.304 214.051 228.325 213.894 228.332 213.601C228.332 213.26 228.332 212.837 228.332 212.312C228.332 211.194 228.332 209.572 228.386 207.575C228.489 203.573 228.829 199.272 229.497 193.205C230.125 187.499 230.97 180.859 231.863 176.544C232.054 175.562 232.245 174.676 232.429 173.906C232.599 173.129 232.749 172.461 232.892 171.922C233.015 171.411 233.117 170.995 233.192 170.668C233.254 170.382 233.288 170.225 233.274 170.225C233.26 170.225 233.206 170.368 233.117 170.647C233.022 170.975 232.892 171.384 232.742 171.881C232.579 172.42 232.408 173.081 232.211 173.851C232.006 174.622 231.795 175.501 231.583 176.483C230.704 180.396 229.763 185.863 229.095 191.943C228.427 198.024 228.127 203.559 228.1 207.568C228.079 209.572 228.12 211.194 228.168 212.312C228.202 212.837 228.229 213.26 228.25 213.601C228.27 213.894 228.291 214.051 228.304 214.051Z" fill="#616161"/>
<path d="M228.332 203.375C228.332 203.375 228.352 202.898 228.325 202.026C228.277 201.16 228.154 199.912 227.916 198.379C227.657 196.852 227.295 195.032 226.73 193.061C226.484 192.162 225.905 190.001 224.507 186.769C222.667 182.393 220.158 178.821 217.977 176.605C217.466 176.019 216.9 175.597 216.443 175.181C216.204 174.983 216 174.785 215.789 174.629C215.577 174.479 215.38 174.342 215.196 174.22C214.48 173.729 214.078 173.47 214.064 173.497C214.003 173.586 215.673 174.567 217.779 176.81C219.879 179.053 222.312 182.604 224.146 186.94C225.169 189.292 225.878 191.391 226.382 193.171C226.968 195.127 227.35 196.92 227.643 198.433C227.923 199.953 228.079 201.187 228.182 202.046C228.263 202.905 228.318 203.382 228.345 203.382L228.332 203.375Z" fill="#616161"/>
<path d="M218.018 222.211L219.081 236.867H237.916L238.987 222.211H218.018Z" fill="#616161"/>
<path d="M241.236 216.43H216.198V222.211H241.236V216.43Z" fill="#616161"/>
<path d="M216.198 236.308V237.91H217.37H240.82V236.308H216.198Z" fill="#616161"/>
<path d="M218.522 240.725L217.37 237.91H239.92L238.578 240.725H218.522Z" fill="#616161"/>
<path d="M238.632 227.003C238.632 227.003 238.605 227.051 238.544 227.139C238.469 227.241 238.373 227.364 238.264 227.514C237.998 227.855 237.63 228.325 237.167 228.918L237.119 228.98L237.071 228.912C236.383 227.957 235.462 226.682 234.378 225.183H234.535C233.731 226.321 232.838 227.582 231.883 228.939L231.802 229.055L231.706 228.946C230.725 227.78 229.661 226.519 228.557 225.203H228.741C228.686 225.271 228.625 225.346 228.57 225.421C227.596 226.642 226.648 227.828 225.755 228.946L225.66 229.062L225.571 228.939C224.617 227.589 223.724 226.321 222.919 225.183H223.076C221.767 226.682 220.656 227.944 219.804 228.912L219.743 228.98L219.702 228.905C219.272 228.182 218.924 227.603 218.679 227.187C218.57 227.003 218.488 226.846 218.413 226.73C218.359 226.628 218.331 226.567 218.331 226.567C218.331 226.567 218.372 226.614 218.44 226.71C218.515 226.826 218.611 226.969 218.734 227.153C218.993 227.562 219.354 228.128 219.811 228.843H219.708C220.547 227.855 221.638 226.573 222.926 225.067L223.008 224.971L223.083 225.074C223.894 226.212 224.801 227.466 225.762 228.816H225.585C226.478 227.691 227.418 226.505 228.393 225.278C228.455 225.203 228.509 225.128 228.564 225.06L228.652 224.951L228.748 225.06C229.852 226.376 230.909 227.644 231.883 228.809H231.706C232.674 227.466 233.574 226.205 234.385 225.08L234.467 224.971L234.542 225.08C235.605 226.594 236.505 227.882 237.18 228.85H237.085C237.569 228.271 237.95 227.814 238.223 227.48C238.346 227.337 238.448 227.221 238.53 227.126C238.598 227.044 238.639 227.01 238.646 227.01L238.632 227.003Z" fill="#E0E0E0"/>
<path d="M239.246 222.115C239.246 222.183 234.528 222.231 228.707 222.231C222.885 222.231 218.168 222.176 218.168 222.115C218.168 222.054 222.885 221.999 228.707 221.999C234.528 221.999 239.246 222.054 239.246 222.115Z" fill="#616161"/>
<path d="M240.2 238.067C240.2 238.128 235.074 238.183 228.748 238.183C222.422 238.183 217.295 238.128 217.295 238.067C217.295 238.005 222.422 237.951 228.748 237.951C235.074 237.951 240.2 238.005 240.2 238.067Z" fill="#616161"/>
<path d="M54.4463 191.303C54.3917 191.364 53.9623 191.112 53.4851 190.723C53.0079 190.342 52.6602 189.98 52.7148 189.912C52.7693 189.851 53.1988 190.103 53.676 190.491C54.1531 190.873 54.5008 191.235 54.4463 191.303Z" fill="#616161"/>
<path d="M67.5074 171.786C67.5892 169.959 67.6369 168.091 67.0643 166.36C66.4917 164.628 65.1556 163.033 63.3627 162.665C61.3245 162.242 59.2317 163.531 58.0865 165.269C56.9412 167.007 56.5527 169.127 56.2118 171.179C53.8873 185.345 53.0283 199.749 53.6555 214.092L62.0062 215.264C65.6737 200.281 66.8394 187.192 67.5074 171.779V171.786Z" fill="url(#paint3_linear_216_5508)"/>
<path d="M62.2039 162.597C62.2039 162.597 62.197 162.644 62.163 162.733C62.1289 162.835 62.0812 162.958 62.0266 163.115C61.8903 163.469 61.7062 163.946 61.4676 164.56C61.3517 164.874 61.195 165.214 61.0723 165.603C60.9495 165.992 60.8132 166.414 60.6701 166.864C60.5269 167.321 60.3701 167.805 60.1997 168.316C60.0633 168.841 59.9202 169.393 59.7702 169.973C59.1431 172.284 58.6182 175.099 58.1546 178.235C57.7047 181.377 57.4048 184.854 57.173 188.508C56.7435 195.822 56.6822 202.462 56.4913 207.261C56.4027 209.661 56.3209 211.603 56.2254 212.946C56.1845 213.594 56.1436 214.112 56.1232 214.487C56.1095 214.651 56.0959 214.78 56.0891 214.889C56.0823 214.978 56.0755 215.026 56.0686 215.026C56.0686 215.026 56.0618 214.978 56.0618 214.889C56.0618 214.78 56.0618 214.651 56.0618 214.487C56.0755 214.105 56.0891 213.594 56.1095 212.94C56.1641 211.597 56.2186 209.654 56.28 207.254C56.4163 202.455 56.4504 195.815 56.873 188.487C57.1048 184.827 57.4116 181.343 57.8819 178.194C58.3591 175.051 58.9045 172.236 59.5657 169.918C59.7225 169.339 59.8725 168.786 60.0156 168.262C60.1861 167.75 60.3565 167.266 60.5064 166.81C60.6632 166.36 60.8064 165.937 60.9359 165.548C61.0654 165.16 61.229 164.826 61.3586 164.512C61.6176 163.912 61.8221 163.435 61.9653 163.088C62.0334 162.938 62.088 162.822 62.1289 162.719C62.1698 162.638 62.1902 162.597 62.197 162.597H62.2039Z" fill="#616161"/>
<path d="M62.9742 162.604C62.9742 162.604 63.4855 163.128 63.9968 164.328C64.5217 165.521 64.8489 167.416 64.7602 169.727C64.5353 174.342 64.1263 180.696 63.5741 187.717C63.0219 194.738 62.4084 201.078 61.9176 205.666C61.6722 207.956 61.4609 209.811 61.3041 211.092C61.2223 211.713 61.1609 212.203 61.1132 212.565C61.0928 212.715 61.0723 212.844 61.0587 212.946C61.045 213.035 61.0314 213.076 61.0314 213.076C61.0314 213.076 61.0314 213.028 61.0314 212.946C61.0382 212.844 61.045 212.715 61.0587 212.558C61.0928 212.197 61.1337 211.699 61.195 211.079C61.3177 209.77 61.5018 207.916 61.7199 205.639C62.1562 201.051 62.7356 194.704 63.2878 187.683C63.8331 180.668 64.2831 174.308 64.5557 169.714C64.6716 167.416 64.3853 165.555 63.8945 164.362C63.4241 163.163 62.9469 162.61 62.981 162.59L62.9742 162.604Z" fill="#616161"/>
<path d="M68.7617 184.206C68.7344 184.281 68.0255 184.104 67.1802 183.797C66.3349 183.491 65.6737 183.184 65.7009 183.109C65.7282 183.034 66.4371 183.218 67.2824 183.518C68.1277 183.825 68.789 184.131 68.7617 184.206Z" fill="#616161"/>
<path d="M69.7706 175.699C69.8047 175.774 69.1298 176.149 68.2641 176.537C67.3983 176.926 66.6689 177.178 66.6348 177.103C66.6007 177.028 67.2756 176.653 68.1414 176.265C69.0071 175.876 69.7365 175.624 69.7706 175.699Z" fill="#616161"/>
<path d="M69.2458 168.759C69.2458 168.841 68.68 168.868 67.9983 168.821C67.3166 168.773 66.7712 168.671 66.7712 168.589C66.7712 168.507 67.337 168.48 68.0187 168.527C68.7004 168.575 69.2458 168.677 69.2458 168.759Z" fill="#616161"/>
<path d="M60.6291 164.308C60.561 164.349 60.1929 163.899 59.8111 163.292C59.4294 162.685 59.1771 162.16 59.2453 162.113C59.3135 162.072 59.6816 162.522 60.0633 163.128C60.4451 163.735 60.6973 164.26 60.6291 164.308Z" fill="#616161"/>
<path d="M57.7865 168.507C57.7865 168.589 57.2548 168.643 56.6004 168.63C55.946 168.616 55.4211 168.541 55.4211 168.452C55.4211 168.371 55.9528 168.316 56.6072 168.33C57.2616 168.343 57.7865 168.418 57.7865 168.507Z" fill="#616161"/>
<path d="M55.7415 176.905C55.7074 176.98 55.1552 176.83 54.494 176.565C53.8327 176.299 53.3283 176.019 53.3555 175.944C53.3896 175.869 53.9418 176.019 54.603 176.285C55.2643 176.551 55.7687 176.83 55.7415 176.905Z" fill="#616161"/>
<path d="M55.5233 183.975C55.537 184.056 55.0666 184.22 54.4599 184.349C53.8532 184.479 53.3555 184.513 53.3351 184.431C53.3215 184.349 53.7918 184.186 54.3985 184.056C55.0052 183.927 55.5029 183.893 55.5233 183.975Z" fill="#616161"/>
<path d="M54.5622 195.529C54.5758 195.611 54.0713 195.768 53.4374 195.884C52.7966 196 52.2717 196.027 52.2581 195.945C52.2444 195.863 52.7489 195.706 53.3828 195.591C54.0168 195.475 54.5485 195.447 54.5622 195.529Z" fill="#616161"/>
<path d="M53.9214 201.91C53.9623 201.985 53.5396 202.278 52.9806 202.578C52.4216 202.871 51.9376 203.055 51.9036 202.98C51.8627 202.905 52.2853 202.612 52.8443 202.312C53.4033 202.019 53.8873 201.835 53.9214 201.91Z" fill="#616161"/>
<path d="M59.1294 209.149C59.0612 209.19 58.6931 208.686 58.3114 208.018C57.9296 207.35 57.6774 206.777 57.7524 206.736C57.8206 206.695 58.1887 207.2 58.5704 207.868C58.9522 208.536 59.2044 209.108 59.1294 209.149Z" fill="#616161"/>
<path d="M60.636 197.118C60.6906 197.179 60.2884 197.67 59.7226 198.222C59.1636 198.774 58.6591 199.169 58.5978 199.115C58.5432 199.054 58.9454 198.563 59.5112 198.011C60.0702 197.458 60.5747 197.063 60.636 197.118Z" fill="#616161"/>
<path d="M60.302 190.805C60.2406 190.86 59.8657 190.553 59.4567 190.11C59.0477 189.667 58.7682 189.271 58.8295 189.21C58.8909 189.155 59.2658 189.462 59.6748 189.905C60.0838 190.342 60.3633 190.744 60.302 190.805Z" fill="#616161"/>
<path d="M61.3381 182.734C61.3995 182.788 61.0586 183.272 60.5746 183.804C60.0906 184.343 59.6543 184.731 59.593 184.677C59.5316 184.622 59.8725 184.138 60.3565 183.606C60.8405 183.068 61.2768 182.679 61.3381 182.734Z" fill="#616161"/>
<path d="M61.9175 176.885C61.863 176.946 61.3858 176.571 60.8541 176.053C60.3224 175.535 59.9406 175.065 60.002 175.003C60.0565 174.942 60.5337 175.317 61.0654 175.835C61.5971 176.353 61.9789 176.824 61.9175 176.885Z" fill="#616161"/>
<path d="M63.0628 168.971C63.1309 169.011 62.8924 169.543 62.5311 170.157C62.1629 170.77 61.8153 171.234 61.7403 171.186C61.6721 171.145 61.9107 170.613 62.272 170C62.6401 169.386 62.9878 168.923 63.0628 168.971Z" fill="#616161"/>
<path d="M65.2101 161.636C65.285 161.676 65.0737 162.208 64.7397 162.822C64.4057 163.435 64.0784 163.906 64.0035 163.865C63.9285 163.824 64.1398 163.292 64.4738 162.679C64.8079 162.065 65.1351 161.595 65.2101 161.636Z" fill="#616161"/>
<path d="M67.6506 164.969C67.6847 165.044 67.3506 165.276 66.9075 165.494C66.4576 165.705 66.0691 165.821 66.035 165.746C66.0009 165.671 66.3349 165.439 66.778 165.221C67.2279 165.01 67.6165 164.894 67.6506 164.969Z" fill="#616161"/>
<path d="M67.7119 191.303C67.6983 191.378 66.9416 191.275 66.0759 190.907C65.217 190.539 64.6171 190.069 64.658 190.001C64.7057 189.926 65.3601 190.28 66.1918 190.635C67.0234 190.989 67.7256 191.221 67.7051 191.303H67.7119Z" fill="#616161"/>
<path d="M66.7099 196.886C66.7235 196.968 66.2259 197.131 65.5851 197.254C64.9511 197.377 64.4194 197.411 64.4058 197.329C64.3921 197.247 64.8898 197.083 65.5306 196.961C66.1645 196.838 66.6962 196.804 66.7099 196.886Z" fill="#616161"/>
<path d="M65.4896 206.45C65.4419 206.511 64.8011 206.075 64.2217 205.332C63.6355 204.596 63.356 203.873 63.4241 203.839C63.4991 203.798 63.8877 204.432 64.4535 205.148C65.0125 205.864 65.5442 206.382 65.4896 206.45Z" fill="#616161"/>
<path d="M52.0672 210.826C52.0126 210.765 52.3535 210.383 52.8238 209.981C53.2942 209.579 53.7237 209.299 53.7782 209.361C53.8327 209.422 53.4919 209.804 53.0215 210.206C52.5512 210.608 52.1217 210.888 52.0672 210.826Z" fill="#616161"/>
<path d="M48.2088 189.946C47.6634 188.249 46.6477 186.272 44.8617 186.245C43.8051 186.231 42.8507 186.988 42.3599 187.922C41.8622 188.855 41.6509 189.939 41.685 190.996C41.8895 197.976 43.0961 205.959 45.5161 213.233H52.0331C51.9512 205.155 50.6765 197.642 48.2156 189.953L48.2088 189.946Z" fill="url(#paint4_linear_216_5508)"/>
<path d="M36.4223 179.264C35.5089 175.617 32.7957 173.654 29.6395 173.47C26.756 173.974 25.638 176.81 25.2971 179.714C24.9563 182.618 25.8561 185.508 26.7491 188.296C29.6122 197.24 32.4685 206.184 35.3316 215.135C38.0311 214.841 40.7374 214.542 43.4369 214.248C40.8738 202.264 39.3945 191.153 36.4223 179.264Z" fill="url(#paint5_linear_216_5508)"/>
<path d="M44.8685 186.245C44.8685 186.245 44.6027 186.538 44.3164 187.165C44.0369 187.799 43.9005 188.808 44.0096 190.048C44.1391 191.289 44.2755 192.782 44.4868 194.411C44.6981 196.047 44.9912 197.84 45.3594 199.715C46.0956 203.457 46.9272 206.818 47.4521 209.265C47.718 210.492 47.9225 211.481 48.0452 212.169C48.0997 212.49 48.1475 212.749 48.1815 212.967C48.2088 213.151 48.2224 213.246 48.2088 213.246C48.1952 213.246 48.1679 213.158 48.1202 212.98C48.0657 212.769 48.0043 212.51 47.9293 212.197C47.7589 211.467 47.5271 210.499 47.2408 209.313C46.6614 206.879 45.7956 203.525 45.0594 199.769C44.6913 197.895 44.405 196.088 44.2073 194.445C44.105 193.62 44.0369 192.836 43.9687 192.1C43.9073 191.371 43.8324 190.689 43.7915 190.055C43.7028 188.801 43.8733 187.751 44.2005 187.11C44.5277 186.476 44.8549 186.238 44.8549 186.238L44.8685 186.245Z" fill="#616161"/>
<path d="M29.7554 173.238C29.7554 173.238 29.3259 173.647 28.7738 174.554C28.2284 175.447 27.649 176.905 27.5399 178.794C27.4172 180.682 27.8399 182.918 28.542 185.324C29.251 187.737 30.0349 190.382 30.8529 193.164C32.4685 198.719 33.9342 203.75 35.0044 207.431C35.5157 209.238 35.9315 210.71 36.2315 211.767C36.361 212.258 36.4701 212.653 36.5519 212.946C36.62 213.219 36.6541 213.362 36.6405 213.362C36.6337 213.362 36.5791 213.226 36.4905 212.96C36.3951 212.667 36.2724 212.278 36.1156 211.794C35.7952 210.745 35.3453 209.286 34.7999 207.486C33.7092 203.812 32.2163 198.794 30.5666 193.246C29.7554 190.464 28.9783 187.812 28.2761 185.392C27.5808 182.979 27.1718 180.696 27.3286 178.773C27.4649 176.851 28.0853 175.372 28.6715 174.485C29.2578 173.586 29.7486 173.231 29.7486 173.231L29.7554 173.238Z" fill="#616161"/>
<path d="M41.6645 213.383C41.6645 213.383 41.5895 213.253 41.4804 212.994C41.3714 212.735 41.2009 212.353 41.0169 211.856C40.6283 210.86 40.1375 209.395 39.6194 207.547C39.1013 205.707 38.5969 203.485 38.1061 201.01C37.6357 198.529 37.1176 195.802 36.5791 192.946C36.0133 190.089 35.3861 187.39 34.6567 184.977C33.9273 182.563 33.1161 180.443 32.2913 178.732C31.4732 177.014 30.6893 175.685 30.103 174.792C29.8235 174.335 29.5713 174.008 29.4213 173.77C29.2645 173.538 29.1896 173.408 29.1964 173.402C29.2032 173.402 29.2986 173.511 29.4691 173.729C29.6327 173.954 29.9053 174.274 30.1985 174.717C30.8188 175.59 31.63 176.912 32.4753 178.63C33.3274 180.348 34.1659 182.468 34.9089 184.888C35.6588 187.308 36.2928 190.014 36.8586 192.877C37.3903 195.741 37.9016 198.467 38.3651 200.949C38.8423 203.423 39.3195 205.645 39.8103 207.486C40.2943 209.327 40.7578 210.799 41.1123 211.808C41.2759 212.312 41.4327 212.701 41.5213 212.967C41.6168 213.233 41.6577 213.376 41.6509 213.376L41.6645 213.383Z" fill="#616161"/>
<path d="M26.8922 186.96C26.9127 187.042 26.4696 187.219 25.9038 187.356C25.338 187.492 24.8676 187.54 24.8472 187.458C24.8267 187.376 25.2698 187.199 25.8356 187.063C26.4014 186.926 26.8718 186.879 26.8922 186.96Z" fill="#616161"/>
<path d="M26.0334 181.425C26.0334 181.507 25.413 181.541 24.6632 181.575C23.9133 181.602 23.2998 181.616 23.2862 181.534C23.2725 181.452 23.8861 181.302 24.6496 181.275C25.413 181.241 26.0334 181.343 26.0266 181.425H26.0334Z" fill="#616161"/>
<path d="M26.9469 176.374C26.8923 176.435 26.4561 176.149 25.9652 175.733C25.4744 175.317 25.1199 174.928 25.1745 174.867C25.229 174.806 25.6653 175.092 26.1561 175.508C26.6469 175.924 27.0014 176.312 26.9469 176.374Z" fill="#616161"/>
<path d="M29.4214 171.69C29.5032 171.711 29.4828 172.106 29.4691 172.577C29.4555 173.054 29.4555 173.449 29.3737 173.463C29.2919 173.477 29.1556 173.081 29.176 172.57C29.1896 172.059 29.3464 171.67 29.4282 171.69H29.4214Z" fill="#616161"/>
<path d="M34.4727 173.899C34.5409 173.947 34.3432 174.349 34.0296 174.792C33.716 175.235 33.4092 175.562 33.3411 175.515C33.2729 175.467 33.4706 175.065 33.7842 174.622C34.0978 174.179 34.4045 173.851 34.4727 173.899Z" fill="#616161"/>
<path d="M37.7585 179.598C37.7925 179.673 37.3699 179.918 36.8177 180.143C36.2656 180.368 35.7952 180.484 35.7679 180.409C35.7338 180.334 36.1565 180.089 36.7086 179.864C37.2608 179.639 37.7312 179.523 37.7585 179.598Z" fill="#616161"/>
<path d="M39.7421 185.461C39.7762 185.536 39.2172 185.849 38.4538 186.02C37.6903 186.197 37.0563 186.149 37.0495 186.067C37.0495 185.986 37.6562 185.897 38.3856 185.726C39.115 185.563 39.7012 185.379 39.7353 185.454L39.7421 185.461Z" fill="#616161"/>
<path d="M30.6076 183.797C30.5257 183.77 30.5871 183.368 30.7371 182.891C30.887 182.413 31.0711 182.052 31.1461 182.073C31.2279 182.1 31.1665 182.502 31.0166 182.979C30.8666 183.456 30.6825 183.818 30.6076 183.797Z" fill="#616161"/>
<path d="M31.8823 191.153C31.8073 191.119 31.9709 190.573 32.2504 189.933C32.5299 189.292 32.8162 188.801 32.8912 188.835C32.9662 188.869 32.8026 189.414 32.5231 190.055C32.2436 190.696 31.9573 191.187 31.8823 191.153Z" fill="#616161"/>
<path d="M28.7329 193.171C28.6988 193.246 28.1875 193.109 27.5672 192.911C26.9468 192.714 26.4424 192.537 26.4629 192.455C26.4765 192.373 27.0218 192.427 27.6558 192.625C28.2898 192.823 28.767 193.089 28.7329 193.164V193.171Z" fill="#616161"/>
<path d="M30.553 199.169C30.6007 199.238 30.253 199.565 29.7758 199.906C29.2987 200.246 28.876 200.465 28.8283 200.396C28.7806 200.328 29.1282 200.001 29.6054 199.66C30.0826 199.319 30.5053 199.101 30.553 199.169Z" fill="#616161"/>
<path d="M32.005 205.155C32.0254 205.236 31.596 205.407 31.0438 205.543C30.4916 205.68 30.0349 205.72 30.0144 205.639C29.994 205.557 30.4234 205.386 30.9756 205.25C31.5278 205.114 31.9845 205.073 32.005 205.155Z" fill="#616161"/>
<path d="M39.9058 190.457C39.9467 190.526 39.5786 190.819 39.0468 191.023C38.5151 191.228 38.0448 191.248 38.0311 191.166C38.0175 191.085 38.4333 190.935 38.9446 190.744C39.4559 190.553 39.8717 190.389 39.9126 190.457H39.9058Z" fill="#616161"/>
<path d="M41.0374 199.769C41.0033 199.844 40.5671 199.715 40.0626 199.476C39.5582 199.238 39.1764 198.985 39.2105 198.91C39.2446 198.835 39.6809 198.965 40.1853 199.203C40.6898 199.442 41.0715 199.694 41.0374 199.769Z" fill="#616161"/>
<path d="M43.0279 206.429C43.0006 206.504 42.4212 206.354 41.7395 206.082C41.0578 205.816 40.5261 205.536 40.5602 205.461C40.5874 205.386 41.1669 205.536 41.8486 205.809C42.5303 206.075 43.062 206.354 43.0279 206.429Z" fill="#616161"/>
<path d="M32.3254 211.644C32.2845 211.569 32.8162 211.215 33.4297 210.724C34.0433 210.24 34.5204 209.811 34.5818 209.865C34.6431 209.92 34.2546 210.458 33.6138 210.956C32.973 211.46 32.3595 211.713 32.3254 211.638V211.644Z" fill="#616161"/>
<path d="M37.5949 208.263C37.513 208.27 37.3972 207.827 37.1927 207.302C36.995 206.777 36.7768 206.375 36.845 206.32C36.9063 206.273 37.254 206.627 37.4721 207.193C37.6903 207.752 37.6767 208.25 37.5949 208.256V208.263Z" fill="#616161"/>
<path d="M36.1974 200.246C36.1497 200.315 35.8088 200.151 35.4407 199.885C35.0658 199.619 34.8067 199.347 34.8544 199.278C34.9022 199.21 35.243 199.374 35.6111 199.64C35.986 199.906 36.2451 200.178 36.1974 200.246Z" fill="#616161"/>
<path d="M48.4746 187.697C48.5224 187.765 48.1952 188.092 47.7316 188.426C47.2749 188.767 46.8659 188.985 46.8113 188.917C46.7636 188.849 47.0908 188.521 47.5544 188.187C48.0111 187.847 48.4201 187.628 48.4746 187.697Z" fill="#616161"/>
<path d="M50.3221 192.755C50.3289 192.837 49.8108 192.946 49.17 192.871C48.5292 192.802 48.0452 192.584 48.0657 192.509C48.0929 192.427 48.5906 192.509 49.1973 192.577C49.8108 192.646 50.3152 192.673 50.3152 192.755H50.3221Z" fill="#616161"/>
<path d="M42.3735 193.886C42.3939 193.968 41.9099 194.139 41.2896 194.179C40.6692 194.22 40.1716 194.118 40.1784 194.036C40.1784 193.954 40.676 193.927 41.2691 193.886C41.8622 193.845 42.353 193.811 42.3735 193.886Z" fill="#616161"/>
<path d="M43.0552 189.101C43.0552 189.183 42.5644 189.189 42.0327 188.944C41.501 188.699 41.1942 188.324 41.2487 188.269C41.3033 188.208 41.6714 188.453 42.1554 188.671C42.6394 188.896 43.062 189.012 43.0552 189.094V189.101Z" fill="#616161"/>
<path d="M51.0037 198.181C50.9628 198.249 50.4652 198.017 49.8926 197.656C49.3199 197.295 48.8973 196.954 48.9382 196.879C48.9791 196.811 49.4767 197.043 50.0493 197.404C50.622 197.765 51.0446 198.106 51.0037 198.181Z" fill="#616161"/>
<path d="M70.4113 212.381H27.9761V219.9H70.4113V212.381Z" fill="#616161"/>
<path d="M31.146 218.407L36.3064 240.882H61.5971L67.2483 218.407H31.146Z" fill="#616161"/>
<path d="M70.3909 219.906C70.3909 219.988 60.82 220.056 49.0131 220.056C37.2062 220.056 27.6353 219.988 27.6353 219.906C27.6353 219.825 37.2062 219.756 49.0131 219.756C60.82 219.756 70.3909 219.825 70.3909 219.906Z" fill="#616161"/>
<path d="M46.7909 194.05C46.7227 194.091 46.4296 193.757 46.1433 193.293C45.857 192.83 45.6797 192.421 45.7479 192.38C45.8161 192.339 46.1092 192.673 46.3955 193.136C46.6818 193.6 46.8591 194.009 46.7909 194.05Z" fill="#616161"/>
<path d="M46.8045 200.103C46.7295 200.076 46.8249 199.565 47.0294 198.958C47.2271 198.351 47.4589 197.881 47.5339 197.908C47.6089 197.936 47.5134 198.447 47.3089 199.054C47.1112 199.66 46.8794 200.131 46.8045 200.103Z" fill="#616161"/>
<path d="M48.8769 206.457C48.8019 206.491 48.4883 205.986 48.1679 205.325C47.8543 204.664 47.6566 204.098 47.7316 204.064C47.8066 204.03 48.1202 204.534 48.4406 205.196C48.7542 205.857 48.9519 206.423 48.8769 206.457Z" fill="#616161"/>
<path d="M44.3981 211.569C44.3368 211.515 44.589 211.119 44.9639 210.69C45.3388 210.261 45.6933 209.954 45.7547 210.008C45.816 210.063 45.5638 210.458 45.1889 210.888C44.8139 211.317 44.4595 211.624 44.3981 211.569Z" fill="#616161"/>
<path d="M43.4574 202.285C43.4437 202.367 43.0347 202.36 42.5439 202.278C42.0531 202.189 41.6714 202.053 41.685 201.978C41.6986 201.896 42.1076 201.903 42.5985 201.985C43.0893 202.073 43.471 202.21 43.4574 202.285Z" fill="#616161"/>
<path d="M191.091 160.688H90.4599V240.937H191.091V160.688Z" fill="#E0E0E0"/>
<g opacity="0.3">
<path d="M97.7881 160.858C109.636 165.085 122.704 165.985 135.417 166.223C138.049 166.271 140.714 166.271 143.264 166.932C145.813 167.594 148.281 169.025 149.59 171.309C151.014 173.797 150.865 176.912 150.053 179.659C149.242 182.407 147.845 184.943 146.829 187.628C145.05 192.332 144.498 197.499 145.241 202.469C145.554 204.582 146.12 206.709 147.34 208.468C148.56 210.22 150.53 211.556 152.671 211.59C156.495 211.644 159.113 207.888 161.008 204.562C168.786 190.935 177.198 175.447 182.175 160.572L97.7813 160.852L97.7881 160.858Z" fill="black"/>
</g>
<path d="M124.749 240.507C124.654 240.507 124.572 222.722 124.572 200.785C124.572 178.848 124.654 161.056 124.749 161.056C124.844 161.056 124.926 178.841 124.926 200.785C124.926 222.729 124.844 240.507 124.749 240.507Z" fill="#272F74"/>
<path d="M165.984 101.381C165.684 99.3836 159.706 92.7644 159.706 92.7644C159.706 92.7644 156.713 80.7598 155.82 77.2219C155.595 76.3357 155.118 75.3336 154.518 74.3247C152.432 70.7867 149.372 67.9168 145.786 65.899L137.51 61.243L135.526 56.8393L115.642 46.6208L110.249 56.1372C110.249 56.1372 97.1541 60.3023 95.4226 63.2745C93.6911 66.2467 96.2816 106.085 96.2816 106.085C96.2816 106.085 90.8008 129.071 89.6419 133.829C88.4899 138.588 90.0168 144.259 90.0168 144.259L99.7718 132.016C102.805 128.212 109.459 126.467 114.237 126.535L155.077 126.713L153.455 115.274L186.476 121.695C186.476 121.695 192.161 110.618 192.604 110.393C193.054 110.168 165.991 101.381 165.991 101.381H165.984Z" fill="url(#paint6_linear_216_5508)"/>
<path d="M114.789 59.8728C114.503 59.5797 117.1 68.3462 120.352 77.2696C122.104 82.0755 122.983 87.1745 122.983 92.3145V124.627L142.568 123.297L139.644 102.015C139.644 102.015 137.258 88.2857 136.59 83.0639C135.976 78.2853 133.877 65.3195 133.877 65.3195C133.877 65.3195 122.99 68.2372 114.796 59.8865L114.789 59.8728Z" fill="white"/>
<path d="M158.24 109.411C158.24 109.411 158.213 109.234 158.24 108.92C158.268 108.607 158.343 108.15 158.499 107.605C158.799 106.514 159.501 105.048 160.735 103.808C161.976 102.567 163.442 101.865 164.532 101.558C165.078 101.401 165.534 101.326 165.848 101.299C166.162 101.272 166.339 101.279 166.339 101.299C166.346 101.36 165.65 101.435 164.607 101.797C163.564 102.151 162.174 102.86 160.988 104.053C159.801 105.246 159.092 106.637 158.738 107.68C158.377 108.73 158.302 109.418 158.24 109.411Z" fill="#272F74"/>
<path d="M159.249 101.66C159.208 101.585 160.49 100.931 162.242 100.795C163.987 100.645 165.364 101.074 165.33 101.163C165.31 101.272 163.946 101.006 162.269 101.149C160.592 101.279 159.29 101.763 159.249 101.66Z" fill="#272F74"/>
<g opacity="0.3">
<path d="M94.3046 119.289L92.6072 121.218C94.4274 123.338 96.7928 125.111 99.5059 125.779C102.219 126.447 105.034 126.522 107.829 126.535C108.961 126.535 110.106 126.528 111.197 126.215C112.301 125.895 113.337 125.267 114.489 125.199C115.26 125.151 116.016 125.363 116.773 125.526C117.53 125.69 118.327 125.799 119.064 125.56C119.8 125.322 120.441 124.64 120.393 123.87C111.899 121.389 103.133 119.855 94.3046 119.289Z" fill="black"/>
</g>
<path d="M150.203 121.763L145.397 116.658L135.513 114.156C135.513 114.156 126.453 116.869 126.242 116.862C126.024 116.855 118.362 114.769 118.362 114.769L115.682 124.592L129.487 125.54L145.247 124.906C145.247 124.906 146.072 124.143 145.581 123.618C145.097 123.093 148.22 124.504 148.588 124.517C148.949 124.531 149.672 124.817 150.156 124.231C150.49 123.829 150.94 122.541 150.203 121.763Z" fill="#FFBE9D"/>
<path d="M145.588 123.618C145.568 123.665 144.975 123.475 144.02 123.168C143.059 122.861 141.737 122.459 140.257 122.077C138.771 121.695 137.415 121.416 136.433 121.218C135.445 121.02 134.838 120.898 134.845 120.85C134.845 120.802 135.479 120.836 136.474 120.973C137.476 121.109 138.853 121.354 140.346 121.736C141.839 122.118 143.168 122.568 144.109 122.936C145.05 123.304 145.615 123.577 145.595 123.618H145.588Z" fill="#EB996E"/>
<path d="M150.203 121.763C150.183 121.811 149.358 121.504 148.008 121.055C146.665 120.598 144.784 120.046 142.691 119.459C140.605 118.839 138.744 118.219 137.333 118.137C135.929 118.021 135.07 118.294 135.056 118.225C135.056 118.205 135.254 118.123 135.649 118.028C136.038 117.932 136.624 117.864 137.347 117.885C138.805 117.905 140.721 118.505 142.787 119.119C144.879 119.705 146.761 120.298 148.09 120.816C148.758 121.068 149.29 121.3 149.651 121.464C150.012 121.627 150.21 121.736 150.196 121.757L150.203 121.763Z" fill="#EB996E"/>
<path d="M95.4158 63.2677C95.4158 63.2677 88.2922 68.2235 86.5607 75.354C84.8292 82.4913 77.3169 111.62 78.8576 115.983C80.3982 120.346 110.358 124.62 110.358 124.62L113.91 109.643L98.6947 105.478C98.6947 105.478 98.8856 91.6055 99.0765 85.8589C99.2674 80.1122 95.4158 63.2677 95.4158 63.2677Z" fill="url(#paint7_linear_216_5508)"/>
<path d="M113.706 111.879L118.607 113.086L115.662 124.395L110.842 123.618L113.706 111.879Z" fill="white"/>
<path d="M78.7416 114.449C78.7416 114.449 78.728 114.701 78.8166 115.158C78.9121 115.608 79.2052 116.262 79.8596 116.855C81.1616 118.069 83.6498 119.078 86.7992 119.643H86.8129H86.8265C88.2648 120.114 89.9077 120.496 91.6665 120.891C93.4252 121.286 95.3135 121.689 97.3041 122.091C101.292 122.909 105.702 123.761 110.372 124.64L110.168 124.77C110.508 123.379 110.863 121.913 111.224 120.421C112.063 116.985 112.881 113.651 113.651 110.495L113.774 110.7C108.743 109.261 104.148 107.952 100.256 106.841H100.249H100.242C98.1766 105.996 96.1247 105.689 94.3455 105.812C92.5595 105.894 91.0598 106.371 89.8941 106.855C88.7284 107.353 87.8967 107.898 87.3378 108.273C87.0787 108.464 86.8742 108.607 86.7174 108.723C86.5743 108.825 86.4993 108.873 86.4993 108.866C86.4993 108.866 86.5606 108.798 86.6901 108.689C86.8265 108.58 87.0174 108.409 87.29 108.205C87.8354 107.809 88.6602 107.237 89.8327 106.712C90.9984 106.2 92.5118 105.689 94.3319 105.587C96.1384 105.444 98.238 105.737 100.351 106.582H100.338C104.244 107.673 108.838 108.961 113.876 110.372L114.033 110.42L113.992 110.584C113.222 113.74 112.41 117.073 111.579 120.509C111.217 121.995 110.856 123.468 110.515 124.858L110.474 125.022L110.311 124.988C105.634 124.109 101.224 123.236 97.2427 122.404C95.2522 121.988 93.3639 121.573 91.6051 121.17C89.8464 120.761 88.2171 120.373 86.7515 119.875H86.7719C83.5816 119.275 81.0935 118.226 79.7778 116.951C79.1166 116.324 78.8371 115.635 78.7553 115.165C78.6871 114.694 78.7553 114.449 78.7553 114.449H78.7416Z" fill="#272F74"/>
<path d="M99.5128 106.48C99.4719 106.528 98.9606 106.057 98.0471 105.444C97.1337 104.83 95.7839 104.108 94.1819 103.637C92.5732 103.174 91.0462 103.058 89.9486 103.085C88.8511 103.112 88.1694 103.228 88.1626 103.174C88.1558 103.14 88.817 102.928 89.9418 102.84C91.0598 102.744 92.6345 102.826 94.2842 103.303C95.9339 103.787 97.3041 104.564 98.1971 105.246C99.0901 105.928 99.54 106.46 99.5128 106.487V106.48Z" fill="#272F74"/>
<path d="M101.51 82.0755C101.51 82.0755 101.537 82.4027 101.517 82.989C101.503 83.5752 101.456 84.4273 101.374 85.4703C101.203 87.5631 100.897 90.4535 100.344 93.6097C99.8059 96.7727 99.1174 99.6017 98.4562 101.599C98.2857 102.097 98.1153 102.547 97.9722 102.935C97.8086 103.303 97.6654 103.631 97.5359 103.917C97.2564 104.435 97.0928 104.714 97.0723 104.708C97.0519 104.694 97.1746 104.394 97.4132 103.862C97.5222 103.569 97.6518 103.235 97.7881 102.867C97.9176 102.472 98.0676 102.029 98.2176 101.524C98.8175 99.5199 99.4582 96.6977 99.9968 93.5483C100.542 90.3989 100.89 87.529 101.122 85.443C101.224 84.4546 101.312 83.6297 101.381 82.9753C101.442 82.3891 101.483 82.0687 101.51 82.0687V82.0755Z" fill="#272F74"/>
<path d="M118.88 74.3451C118.88 74.3451 118.811 74.1611 118.641 73.8407C118.471 73.5271 118.171 73.084 117.618 72.7227C117.08 72.3682 116.255 72.1092 115.403 72.3955C114.564 72.6682 113.74 73.4521 113.535 74.5156L113.44 74.9996L113.228 74.5496C112.513 73.0022 111.776 71.223 111.142 69.287C109.99 65.7763 109.493 62.4156 109.602 59.9887C109.602 59.382 109.684 58.8367 109.724 58.3595C109.806 57.8823 109.868 57.4733 109.943 57.1461C110.113 56.4917 110.222 56.1304 110.243 56.1372C110.331 56.1508 109.84 57.5892 109.854 59.9956C109.813 62.3883 110.338 65.7013 111.483 69.1779C112.11 71.0935 112.826 72.8727 113.521 74.4133L113.215 74.4474C113.467 73.2544 114.394 72.416 115.321 72.1365C116.276 71.8433 117.175 72.1501 117.728 72.5591C118.3 72.9681 118.593 73.4589 118.736 73.793C118.805 73.9634 118.852 74.0997 118.866 74.1952C118.886 74.2906 118.893 74.3383 118.88 74.3383V74.3451Z" fill="#272F74"/>
<path d="M135.499 75.8789C135.499 75.8789 135.431 75.5926 135.342 75.0677C135.267 74.5428 135.097 73.7725 135.199 72.7841C135.336 71.8161 135.792 70.6367 136.842 69.7642C137.36 69.3347 138.069 69.0484 138.826 69.0552C139.569 69.0552 140.38 69.3415 140.912 69.9891L140.612 70.1596C140.407 69.6347 140.189 69.0893 139.964 68.5303C138.689 65.3196 137.558 62.4019 136.76 60.2887C136.385 59.2798 136.072 58.4345 135.826 57.7801C135.615 57.187 135.506 56.853 135.526 56.8393C135.547 56.8325 135.697 57.1461 135.956 57.7255C136.229 58.3731 136.576 59.2048 136.992 60.2001C137.858 62.2929 139.023 65.19 140.298 68.4076C140.516 68.9666 140.734 69.512 140.939 70.0369L141.355 71.0867L140.639 70.2073C140.196 69.6619 139.487 69.3961 138.826 69.3892C138.151 69.3824 137.524 69.621 137.04 70.0096C136.065 70.7867 135.588 71.9115 135.438 72.8182C135.308 73.7521 135.438 74.5292 135.479 75.0541C135.526 75.5858 135.533 75.8789 135.513 75.8789H135.499Z" fill="#272F74"/>
<path d="M148.145 77.5695C148.24 77.5559 149.781 87.9176 151.587 100.713C153.394 113.515 154.771 123.897 154.675 123.911C154.58 123.924 153.039 113.563 151.233 100.761C149.433 87.9653 148.049 77.5763 148.145 77.5627V77.5695Z" fill="#272F74"/>
<g opacity="0.3">
<path d="M111.354 69.4029C111.436 72.0478 112.015 74.6791 113.051 77.0991C113.794 76.1857 114.619 75.2109 115.744 74.945C117.155 74.611 118.573 75.4767 119.595 76.5333C119.377 75.4767 119.023 74.4269 118.368 73.5953C117.714 72.7568 116.712 72.1569 115.669 72.1842C114.626 72.2114 113.583 72.9817 113.392 74.0384L111.436 69.4506" fill="black"/>
</g>
<path d="M99.8468 76.8947C99.7786 76.8947 99.8059 76.1789 99.5946 75.0677C99.3901 73.9566 98.8924 72.45 97.9381 71.0117C97.4541 70.2959 96.9155 69.6824 96.377 69.1575C95.8248 68.653 95.2999 68.2372 94.8159 67.9441C93.8616 67.3374 93.1867 67.1056 93.2071 67.0442C93.214 67.0238 93.3844 67.0647 93.698 67.1669C93.8548 67.2147 94.0388 67.2828 94.2501 67.3783C94.4615 67.4737 94.7001 67.576 94.9523 67.7259C95.4636 67.9986 96.0293 68.4144 96.6088 68.9189C97.1746 69.4438 97.7404 70.0778 98.238 70.814C99.2265 72.3001 99.7037 73.8748 99.8468 75.0268C99.9218 75.5994 99.9423 76.0698 99.915 76.397C99.8945 76.7174 99.8741 76.8947 99.8536 76.8947H99.8468Z" fill="#272F74"/>
<path d="M139.412 28.2424C138.608 20.6756 132.118 14.9972 124.51 15.1949L123.754 15.2153C115.614 15.9038 111.647 23.1979 112.56 31.3168L114.796 59.8728L115.744 61.0317C120.12 66.4034 127.564 68.1622 133.884 65.3059L133.256 56.1167C133.256 56.1167 141.062 54.6988 140.96 46.8594C140.912 43.0692 140.169 35.2843 139.419 28.2424H139.412Z" fill="#FFBE9D"/>
<path d="M133.311 56.1099C133.311 56.1099 128.314 56.5394 122.963 53.3695C122.963 53.3695 125.526 58.9458 133.325 58.0391L133.311 56.1099Z" fill="#EB996E"/>
<path d="M136.931 34.7253C136.965 35.3184 136.495 35.8364 135.881 35.8842C135.267 35.9319 134.736 35.4956 134.702 34.9025C134.668 34.3095 135.138 33.7914 135.751 33.7437C136.365 33.6959 136.897 34.1322 136.931 34.7253Z" fill="#303030"/>
<path d="M137.428 30.4647C137.34 30.6011 136.454 30.6965 135.39 31.2691C134.327 31.8349 133.693 32.5575 133.543 32.5439C133.475 32.5439 133.536 32.3462 133.809 32.0258C134.081 31.7122 134.586 31.2691 135.247 30.9146C135.908 30.5602 136.529 30.3966 136.91 30.3625C137.299 30.3284 137.469 30.3966 137.428 30.4579V30.4647Z" fill="#303030"/>
<path d="M125.615 35.3184C125.649 35.9114 125.178 36.4295 124.565 36.4772C123.951 36.525 123.42 36.0887 123.386 35.4956C123.352 34.9025 123.822 34.3844 124.435 34.3367C125.049 34.289 125.581 34.7253 125.615 35.3184Z" fill="#303030"/>
<path d="M125.444 32.1144C125.288 32.1485 124.558 31.6577 123.392 31.3646C122.227 31.0714 121.279 31.1464 121.17 31.0442C121.116 30.9964 121.293 30.9078 121.709 30.8737C122.118 30.8328 122.786 30.8669 123.515 31.0442C124.245 31.2282 124.81 31.5077 125.124 31.7259C125.438 31.944 125.519 32.1008 125.444 32.1144Z" fill="#303030"/>
<path d="M130.168 41.474C130.162 41.4058 130.905 41.2559 132.118 41.0718C132.425 41.0309 132.711 40.9627 132.759 40.7514C132.827 40.5265 132.691 40.1992 132.527 39.8448C132.22 39.1085 131.893 38.3382 131.559 37.527C130.209 34.2276 129.228 31.5077 129.357 31.4532C129.494 31.3986 130.693 34.03 132.043 37.3362C132.37 38.1474 132.677 38.9245 132.977 39.6675C133.1 40.0152 133.311 40.4038 133.168 40.8673C133.093 41.0991 132.868 41.2695 132.677 41.3309C132.479 41.399 132.309 41.4058 132.159 41.4195C130.939 41.5149 130.182 41.5422 130.175 41.474H130.168Z" fill="#303030"/>
<path d="M125.465 27.4585C125.328 27.7789 124.135 27.5675 122.718 27.6698C121.293 27.7448 120.134 28.0993 119.964 27.7993C119.889 27.6562 120.1 27.3562 120.577 27.0631C121.047 26.77 121.79 26.5041 122.643 26.4496C123.495 26.395 124.265 26.5723 124.769 26.8041C125.281 27.0358 125.526 27.3085 125.465 27.4585Z" fill="#303030"/>
<path d="M137.401 27.7243C137.142 28.0038 136.099 27.7243 134.858 27.7243C133.611 27.6903 132.561 27.9288 132.316 27.6494C132.207 27.513 132.37 27.2335 132.827 26.9745C133.277 26.7086 134.034 26.4905 134.893 26.5041C135.745 26.5177 136.495 26.7563 136.924 27.0358C137.367 27.3153 137.51 27.5948 137.401 27.7243Z" fill="#303030"/>
<path d="M141.696 21.3096C141.546 20.6007 140.844 19.994 140.128 20.103C140.51 19.9667 140.905 19.8235 141.212 19.5509C141.519 19.2782 141.709 18.8419 141.58 18.4602C141.382 17.8535 140.605 17.7307 139.992 17.5535C139.187 17.3286 138.465 16.8446 137.947 16.1901C137.204 15.2494 136.917 14.0224 136.27 13.0135C135.438 11.7046 133.986 10.798 132.445 10.6275C130.898 10.4571 129.289 11.0229 128.192 12.1204C126.992 10.8934 125.185 10.2867 123.488 10.5457C121.791 10.8048 120.25 11.9228 119.473 13.4497C117.394 12.584 114.858 12.9385 113.092 14.3496C111.333 15.7538 110.427 18.1534 110.808 20.3757L115.689 23.3683C115.771 21.8618 117.455 20.662 118.907 21.0778C120.379 21.5005 121.32 23.2115 122.854 23.3274C124.047 23.416 125.056 22.4958 126.215 22.189C127.612 21.8141 129.091 22.3731 130.353 23.0888C131.614 23.7978 132.813 24.684 134.218 25.0385C135.867 25.4543 137.619 25.093 139.194 24.4454C139.869 24.1727 140.537 23.8319 141.035 23.307C141.532 22.7821 141.846 22.0322 141.703 21.3164L141.696 21.3096Z" fill="#303030"/>
<path d="M116.541 21.0642L138.901 20.9347C138.165 19.4145 136.89 18.2147 135.513 17.2263C132.548 15.1062 128.941 13.8315 125.294 13.8656C121.647 13.8996 114.353 18.5488 111.783 21.1324C109.725 23.2047 109.786 24.943 109.786 24.943C109.534 27.847 111.245 31.0987 111.967 33.9209C112.342 35.3797 113.106 39.7971 113.106 39.7971C114.34 39.7562 114.769 38.7677 114.544 37.5543L114.183 32.7825C114.183 32.7825 118.287 29.6876 116.153 24.3022C115.819 23.8796 115.089 21.9095 116.541 21.0574V21.0642Z" fill="#303030"/>
<path d="M113.835 32.4757C112.697 28.5151 111.654 24.275 112.86 20.3348C112.642 20.328 112.417 20.3143 112.199 20.3075L111.92 20.512C110.672 20.0894 109.172 20.5666 108.395 21.6368C107.618 22.7003 107.625 24.275 108.402 25.3384C107.08 25.277 105.805 26.3814 105.689 27.7039C105.607 28.6173 106.003 29.4967 106.412 30.3147C106.821 31.1328 107.257 31.9849 107.264 32.8983C107.264 33.8118 106.684 34.8071 105.778 34.9161C106.187 35.8569 107.318 36.409 108.307 36.1432C107.993 36.9203 107.455 37.5952 106.773 38.0792C108.232 39.0676 110.229 38.7336 111.811 37.9633C112.751 37.5066 113.672 36.8521 114.053 35.8841C114.476 34.8071 114.156 33.5937 113.835 32.4825V32.4757Z" fill="#303030"/>
<path d="M113.467 37.0839C113.331 37.0294 108.041 35.6319 108.347 40.9832C108.654 46.3345 113.965 44.9234 113.965 44.7666C113.965 44.6098 113.46 37.0839 113.46 37.0839H113.467Z" fill="#FFBE9D"/>
<path d="M112.69 42.8238C112.69 42.8238 112.601 42.8919 112.444 42.9737C112.294 43.0555 112.035 43.1169 111.749 43.0283C111.17 42.851 110.645 41.9853 110.563 41.0173C110.522 40.5333 110.597 40.0629 110.747 39.6675C110.89 39.2653 111.122 38.979 111.408 38.9109C111.688 38.8291 111.899 38.9858 111.974 39.1358C112.056 39.279 112.029 39.388 112.056 39.3949C112.07 39.4085 112.165 39.2994 112.11 39.0813C112.083 38.979 112.015 38.8563 111.879 38.7609C111.742 38.6655 111.551 38.6245 111.354 38.6518C110.945 38.7064 110.59 39.1086 110.427 39.538C110.236 39.9743 110.14 40.4992 110.188 41.0514C110.283 42.1284 110.897 43.1033 111.681 43.2873C112.063 43.3623 112.369 43.2328 112.526 43.0964C112.683 42.9533 112.703 42.8306 112.69 42.8238Z" fill="#EB996E"/>
<path d="M107.911 32.6461C107.911 32.6461 107.761 32.4416 107.816 32.0258C107.863 31.6168 108.163 31.0237 108.818 30.6283C109.465 30.2329 110.358 30.1375 111.272 30.0353C112.172 29.9398 113.201 29.6808 113.712 28.7946C114.23 27.9288 114.244 26.8722 114.128 25.986C113.999 25.0862 113.76 24.2682 113.644 23.566C113.358 22.1481 113.631 21.2415 113.678 21.2687C113.74 21.2755 113.583 22.1481 113.931 23.5047C114.081 24.1864 114.346 24.9839 114.503 25.9315C114.633 26.8654 114.653 27.997 114.06 29.0127C113.76 29.5104 113.29 29.8921 112.785 30.0898C112.281 30.2943 111.776 30.3625 111.306 30.417C110.372 30.4988 109.547 30.567 108.954 30.8874C108.368 31.1941 108.061 31.6986 107.973 32.0531C107.877 32.4144 107.952 32.6393 107.911 32.6461Z" fill="#303030"/>
<path d="M106.616 30.3148C106.616 30.3148 106.5 30.1648 106.452 29.8308C106.412 29.5035 106.432 28.9923 106.718 28.4537C106.861 28.1879 107.066 27.9152 107.352 27.6902C107.632 27.4585 108.013 27.3085 108.382 27.2131C108.743 27.104 109.125 27.0154 109.397 26.7972C109.67 26.5791 109.793 26.2246 109.8 25.8156C109.813 25.4066 109.752 24.9771 109.765 24.5477C109.765 24.125 109.82 23.716 109.902 23.3342C110.065 22.5708 110.345 21.9232 110.672 21.4187C110.992 20.9006 111.511 20.6484 111.858 20.662C112.213 20.662 112.363 20.8256 112.342 20.8393C112.329 20.8733 112.165 20.7779 111.865 20.8256C111.565 20.8597 111.183 21.0915 110.917 21.5755C110.652 22.0527 110.413 22.6866 110.277 23.4092C110.209 23.7705 110.174 24.1523 110.174 24.5545C110.174 24.9499 110.236 25.3657 110.222 25.836C110.222 26.2928 110.052 26.8245 109.656 27.1176C109.268 27.4108 108.845 27.4857 108.491 27.588C107.754 27.7312 107.264 28.1402 106.977 28.6105C106.412 29.5717 106.698 30.3284 106.623 30.3284L106.616 30.3148Z" fill="#303030"/>
<path d="M137.947 16.197C137.947 16.197 137.544 16.4901 136.842 16.1561C136.501 16.0061 136.161 15.6789 135.833 15.2971C135.506 14.9086 135.131 14.4927 134.593 14.1928C133.55 13.5997 131.852 13.4429 130.557 14.4586C129.896 14.9358 129.31 15.6107 128.539 16.1697C128.157 16.4424 127.708 16.6878 127.196 16.79C126.692 16.8923 126.153 16.8173 125.669 16.6469C124.701 16.2992 123.945 15.7061 123.113 15.4062C122.281 15.0858 121.416 14.9427 120.598 14.9563C118.948 14.9563 117.516 15.5834 116.541 16.3537C115.553 17.1241 114.967 17.983 114.626 18.5965C114.292 19.2168 114.169 19.5986 114.135 19.585C114.121 19.585 114.135 19.4827 114.19 19.2986C114.237 19.1146 114.333 18.8487 114.483 18.5215C114.79 17.8739 115.349 16.9536 116.357 16.122C117.346 15.2903 118.846 14.6018 120.591 14.5745C121.456 14.5541 122.37 14.6904 123.256 15.0313C124.156 15.3585 124.933 15.9516 125.806 16.2583C126.242 16.4151 126.685 16.4696 127.114 16.3878C127.544 16.306 127.933 16.0947 128.294 15.8425C129.016 15.3312 129.616 14.6563 130.325 14.1519C131.027 13.627 131.886 13.3679 132.663 13.3748C133.447 13.3748 134.163 13.5997 134.736 13.9338C135.315 14.2678 135.711 14.745 136.011 15.1403C136.324 15.5357 136.61 15.8425 136.917 16.0061C137.531 16.3538 137.953 16.1492 137.947 16.1901V16.197Z" fill="#303030"/>
<path d="M127.196 42.8783C127.367 42.8374 127.558 43.9826 128.676 44.6302C129.794 45.2778 130.987 44.9438 131.027 45.1074C131.055 45.1756 130.796 45.3733 130.278 45.4755C129.773 45.5778 129.01 45.5369 128.328 45.1415C127.646 44.7461 127.278 44.1258 127.162 43.6622C127.04 43.1919 127.121 42.8851 127.196 42.8783Z" fill="#303030"/>
<path d="M197.744 149.386C195.72 147.579 192.918 146.741 190.212 146.897L185.603 161.54C188.978 161.69 192.345 163.428 195.604 162.535C198.222 161.82 200.205 159.359 200.567 156.673C200.928 153.987 199.762 151.192 197.738 149.386H197.744Z" fill="url(#paint8_linear_216_5508)"/>
<path d="M190.294 146.557C190.3 146.441 190.791 146.345 191.691 146.359C192.577 146.386 193.9 146.482 195.461 147.068C197.029 147.647 198.733 148.833 200.049 150.633C200.71 151.533 201.262 152.603 201.582 153.81C201.91 155.01 201.964 156.352 201.698 157.648C201.432 158.95 200.86 160.17 200.021 161.145C199.183 162.126 198.113 162.801 197.049 163.203C194.902 164.008 192.836 163.878 191.255 163.578C189.66 163.265 188.46 162.801 187.642 162.46C186.831 162.113 186.408 161.854 186.442 161.738C186.476 161.622 186.974 161.656 187.839 161.799C188.705 161.935 189.932 162.201 191.432 162.338C192.918 162.474 194.718 162.426 196.436 161.69C197.288 161.322 198.078 160.777 198.692 160.027C199.312 159.277 199.749 158.323 199.96 157.293C200.403 155.214 199.769 153.135 198.712 151.567C197.649 149.985 196.265 148.854 194.956 148.213C193.641 147.559 192.427 147.266 191.596 147.041C190.757 146.822 190.28 146.679 190.294 146.557Z" fill="#F5F5F5"/>
<path d="M147.606 201.474L137.585 229.552L172.454 242.198C173.456 238.796 157.845 225.564 157.845 225.564L165.003 207.841L147.606 201.48V201.474Z" fill="#303030"/>
<g opacity="0.6">
<path d="M147.606 220.138C146.863 220.077 146.12 220.67 146.031 221.406C145.943 222.142 146.536 222.906 147.272 222.974C148.015 223.049 148.922 222.367 148.928 221.624C148.935 220.881 148.192 220.029 147.456 220.131" fill="white"/>
</g>
<path d="M137.585 229.552L138.594 226.716L171.717 239.928C171.717 239.928 173.026 241.168 172.454 242.198L137.585 229.552Z" fill="white"/>
<path d="M158.472 225.592C158.404 225.762 157.525 225.53 156.488 225.769C155.445 225.987 154.743 226.567 154.614 226.444C154.471 226.355 155.091 225.428 156.352 225.155C157.606 224.869 158.568 225.449 158.472 225.592Z" fill="#272F74"/>
<path d="M161.581 228.428C161.56 228.605 160.715 228.632 159.876 229.137C159.024 229.621 158.595 230.35 158.424 230.282C158.254 230.248 158.499 229.211 159.556 228.598C160.606 227.971 161.635 228.264 161.581 228.428Z" fill="#272F74"/>
<path d="M162.071 233.561C161.901 233.54 161.976 232.606 162.753 231.829C163.523 231.052 164.457 230.97 164.478 231.141C164.526 231.318 163.823 231.632 163.196 232.272C162.555 232.899 162.249 233.602 162.071 233.561Z" fill="#272F74"/>
<path d="M159.651 221.365C159.522 221.495 158.827 220.977 157.845 220.69C156.863 220.384 155.998 220.438 155.964 220.261C155.909 220.104 156.87 219.736 158.029 220.09C159.188 220.431 159.788 221.263 159.658 221.365H159.651Z" fill="#272F74"/>
<path d="M160.326 216.927C160.306 216.996 159.59 216.859 158.581 216.287C158.077 216 157.511 215.598 156.959 215.06C156.679 214.794 156.407 214.494 156.148 214.167C156.025 214.003 155.875 213.833 155.773 213.567C155.65 213.321 155.704 212.83 156.025 212.633C156.298 212.428 156.659 212.428 156.911 212.517C157.17 212.599 157.361 212.728 157.531 212.844C157.886 213.076 158.206 213.342 158.479 213.608C159.038 214.153 159.44 214.732 159.706 215.25C160.245 216.293 160.285 217.03 160.217 217.043C160.122 217.071 159.917 216.396 159.317 215.475C159.018 215.019 158.608 214.507 158.077 214.03C157.811 213.792 157.511 213.567 157.184 213.355C156.85 213.124 156.536 213.008 156.379 213.137C156.325 213.185 156.311 213.212 156.345 213.349C156.386 213.478 156.502 213.628 156.625 213.792C156.863 214.105 157.109 214.392 157.354 214.651C157.852 215.175 158.363 215.591 158.806 215.912C159.706 216.553 160.347 216.839 160.306 216.927H160.326Z" fill="#272F74"/>
<path d="M160.013 217.091C159.945 217.091 159.829 216.362 160.163 215.237C160.333 214.678 160.626 214.037 161.097 213.41C161.328 213.096 161.608 212.796 161.928 212.51C162.255 212.237 162.671 211.869 163.36 212.033C163.707 212.142 163.898 212.517 163.912 212.783C163.939 213.062 163.892 213.274 163.857 213.485C163.776 213.914 163.619 214.31 163.435 214.664C163.053 215.366 162.528 215.871 162.037 216.198C161.028 216.852 160.244 216.798 160.251 216.737C160.224 216.627 160.94 216.518 161.771 215.837C162.18 215.503 162.617 215.019 162.917 214.398C163.067 214.085 163.189 213.744 163.251 213.376C163.333 212.987 163.298 212.633 163.148 212.626C162.978 212.558 162.583 212.735 162.33 212.974C162.037 213.219 161.778 213.492 161.553 213.764C161.103 214.317 160.79 214.882 160.585 215.387C160.169 216.396 160.115 217.098 160.013 217.091Z" fill="#272F74"/>
<path d="M113.821 126.481C108.532 126.603 103.514 127.353 99.8741 131.184C95.0409 136.27 89.0693 143.523 88.7284 148.547C88.224 156.059 92.7504 158.295 96.0634 160.122C97.529 160.933 99.1924 161.295 100.869 161.233L162.003 160.77L163.926 150.415L124.388 140.667L126.031 125.785L113.828 126.474L113.821 126.481Z" fill="#272F74"/>
<path d="M126.017 125.792L145.247 124.906C145.247 124.906 178.466 126.753 185.556 133.25C192.645 139.746 191.759 147.129 189.394 154.212C187.028 161.295 166.216 206.62 166.216 206.62C166.216 206.62 167.907 209.504 166.952 212.381C165.48 216.832 161.526 217.548 161.526 217.548L143.039 210.751C143.039 210.751 140.53 209.865 142.302 207.506C144.075 205.141 145.254 204.705 145.254 204.705V199.981C145.254 199.981 151.751 188.167 152.344 186.544C152.937 184.922 159.161 160.886 159.161 160.886L163.299 153.776C163.299 153.776 153.298 149.072 144.627 145.664L124.381 140.674L126.024 125.792H126.017Z" fill="#272F74"/>
<path d="M157.211 209.906C157.177 209.954 156.591 209.49 155.589 208.843C154.587 208.195 153.148 207.391 151.451 206.743C149.753 206.102 148.138 205.741 146.958 205.564C145.779 205.38 145.036 205.339 145.043 205.284C145.043 205.243 145.793 205.196 146.993 205.318C148.192 205.434 149.849 205.761 151.58 206.416C153.312 207.077 154.757 207.929 155.739 208.638C156.72 209.347 157.245 209.879 157.218 209.906H157.211Z" fill="#272F74"/>
<path d="M166.448 206.654C166.414 206.682 165.998 206.259 165.371 205.523C164.751 204.793 163.919 203.75 163.046 202.571C162.174 201.392 161.431 200.287 160.919 199.476C160.408 198.665 160.122 198.14 160.156 198.113C160.197 198.086 160.558 198.556 161.124 199.333C161.772 200.219 162.508 201.235 163.326 202.36C164.157 203.478 164.907 204.487 165.562 205.366C166.134 206.136 166.475 206.62 166.441 206.654H166.448Z" fill="#272F74"/>
<path d="M173.224 147.286C173.238 147.34 172.542 147.49 171.472 147.845C170.402 148.199 168.957 148.799 167.491 149.713C166.032 150.626 164.853 151.662 164.069 152.467C163.278 153.271 162.842 153.83 162.794 153.796C162.76 153.776 163.128 153.162 163.885 152.296C164.635 151.431 165.814 150.34 167.307 149.406C168.8 148.479 170.293 147.899 171.404 147.6C172.515 147.3 173.224 147.238 173.231 147.279L173.224 147.286Z" fill="#272F74"/>
<path d="M154.314 179.38C154.314 179.38 154.328 179.237 154.389 178.978C154.464 178.685 154.559 178.31 154.675 177.853C154.948 176.83 155.323 175.433 155.78 173.729C156.761 170.211 158.09 165.433 159.563 160.156C160.333 157.511 160.988 154.982 161.731 152.699C162.59 150.429 163.953 148.683 165.214 147.388C166.482 146.093 167.675 145.22 168.52 144.661C168.95 144.389 169.284 144.184 169.516 144.062C169.747 143.932 169.877 143.871 169.877 143.884C169.891 143.912 169.413 144.198 168.595 144.777C167.777 145.364 166.625 146.257 165.391 147.559C164.171 148.854 162.855 150.592 162.037 152.808C161.328 155.064 160.667 157.614 159.904 160.252C158.39 165.521 157.027 170.286 156.018 173.797C155.514 175.494 155.105 176.878 154.805 177.894C154.662 178.344 154.546 178.712 154.457 179.005C154.375 179.257 154.328 179.387 154.314 179.387V179.38Z" fill="#272F74"/>
<path d="M137.306 144.757C137.21 144.764 136.801 141.171 136.406 136.727C136.004 132.282 135.758 128.669 135.854 128.662C135.949 128.655 136.358 132.248 136.754 136.693C137.156 141.137 137.401 144.743 137.306 144.757Z" fill="#272F74"/>
<path d="M105.294 154.362C105.239 154.389 104.946 153.81 104.339 152.951C103.739 152.099 102.799 150.994 101.544 150.02C100.29 149.045 98.9948 148.39 98.0199 148.022C97.0451 147.647 96.4111 147.497 96.4248 147.436C96.4248 147.402 97.0928 147.456 98.1086 147.784C99.1243 148.104 100.474 148.738 101.769 149.74C103.058 150.749 103.998 151.908 104.551 152.814C105.11 153.721 105.328 154.348 105.294 154.362Z" fill="#272F74"/>
<path d="M117.08 141.308C117.046 141.362 116.228 140.837 114.817 140.196C113.406 139.549 111.367 138.847 109.029 138.506C106.684 138.172 104.53 138.281 102.996 138.506C101.462 138.724 100.528 138.997 100.515 138.935C100.508 138.915 100.733 138.826 101.149 138.69C101.565 138.547 102.185 138.397 102.955 138.254C104.496 137.967 106.691 137.817 109.077 138.151C111.456 138.499 113.522 139.256 114.919 139.971C115.621 140.326 116.166 140.646 116.528 140.899C116.889 141.144 117.087 141.287 117.073 141.308H117.08Z" fill="#272F74"/>
<path d="M163.128 150.408C163.128 150.408 162.958 150.394 162.651 150.326C162.303 150.251 161.853 150.156 161.294 150.033C160.081 149.76 158.383 149.379 156.311 148.915C152.105 147.974 146.283 146.707 139.828 145.432C133.372 144.157 127.51 143.107 123.256 142.371C121.163 142.01 119.452 141.717 118.225 141.505C117.659 141.403 117.203 141.321 116.855 141.26C116.541 141.198 116.378 141.164 116.385 141.151C116.391 141.137 116.555 141.151 116.869 141.192C117.216 141.239 117.673 141.294 118.246 141.369C119.439 141.532 121.17 141.785 123.297 142.119C127.557 142.787 133.434 143.796 139.896 145.077C146.352 146.359 152.173 147.661 156.366 148.663C158.465 149.167 160.156 149.583 161.322 149.89C161.874 150.04 162.324 150.156 162.664 150.251C162.971 150.34 163.128 150.388 163.128 150.401V150.408Z" fill="#272F74"/>
<path d="M124.374 142.432C124.306 142.453 124.163 141.621 123.529 140.476C123.208 139.91 122.745 139.276 122.131 138.669C121.525 138.056 120.782 137.436 119.991 136.815C118.396 135.595 116.773 134.729 115.614 134.095C114.442 133.468 113.719 133.08 113.746 133.032C113.767 132.991 114.53 133.298 115.73 133.87C116.923 134.45 118.586 135.288 120.209 136.536C121.013 137.163 121.756 137.79 122.37 138.438C122.99 139.078 123.454 139.753 123.754 140.353C124.054 140.96 124.217 141.485 124.299 141.846C124.381 142.214 124.401 142.419 124.381 142.426L124.374 142.432Z" fill="#272F74"/>
<path d="M192.468 151.676C192.55 151.751 191.527 152.787 190.73 154.355C189.919 155.916 189.673 157.355 189.564 157.334C189.475 157.334 189.564 155.821 190.409 154.198C191.241 152.562 192.414 151.608 192.468 151.683V151.676Z" fill="#272F74"/>
<g opacity="0.3">
<path d="M148.71 81.8165L153.087 112.642L153.305 113.133C154.341 102.526 152.746 91.6737 148.71 81.8165Z" fill="black"/>
</g>
<path d="M172.276 99.5336L158.05 124.422L122.99 125.186L122.902 126.774L156.85 126.522L157.927 126.488L193.777 126.556L201.023 114.06L210.281 100.795C210.887 99.9221 210.26 98.736 209.204 98.736L173.422 98.8723C172.951 98.8723 172.522 99.1246 172.29 99.5336H172.276Z" fill="#E0E0E0"/>
<path d="M201.016 114.054C201.016 114.054 202.857 115.744 202.571 117.176C202.278 118.607 202.38 119.678 201.016 119.773C201.016 119.773 201.112 121.614 199.176 121.907C199.176 121.907 199.592 124.156 196.974 124.545C196.974 124.545 196.17 126.951 194.52 126.365C192.87 125.779 191.807 125.104 191.807 125.104L191.323 124.231C191.323 124.231 188.896 123.318 189.496 121.948C189.857 121.116 191.118 120.898 191.118 120.898C191.118 120.898 190.593 119.678 191.275 118.764C191.855 117.98 193.756 118.628 193.756 118.628C193.756 118.628 193.647 117.619 194.356 116.774C195.004 116.01 198.017 118.089 198.017 118.089L199.667 116.126L201.03 114.054H201.016Z" fill="#FFBE9D"/>
<path d="M196.974 124.545C196.92 124.627 195.57 123.877 193.947 122.875C192.325 121.866 191.057 120.986 191.111 120.905C191.166 120.823 192.516 121.566 194.138 122.575C195.754 123.584 197.029 124.463 196.974 124.545Z" fill="#EB996E"/>
<path d="M199.176 121.907C199.128 121.988 197.867 121.327 196.367 120.421C194.868 119.514 193.695 118.716 193.743 118.635C193.791 118.553 195.052 119.214 196.551 120.121C198.051 121.027 199.224 121.825 199.176 121.907Z" fill="#EB996E"/>
<path d="M196.176 116.971C196.231 116.869 197.356 117.462 198.665 118.294C199.973 119.132 201.03 119.78 201.003 119.848C200.955 119.964 199.783 119.432 198.474 118.594C197.158 117.762 196.136 117.046 196.17 116.971H196.176Z" fill="#EB996E"/>
<path d="M210.274 99.6767C210.274 99.6767 210.213 99.6904 210.103 99.6972C209.967 99.6972 209.803 99.7108 209.599 99.7176C209.129 99.7244 208.481 99.7381 207.663 99.7517C205.952 99.7653 203.525 99.7858 200.546 99.8063C194.506 99.8199 186.217 99.8403 177.062 99.8608C176.489 99.8608 175.917 99.8608 175.351 99.8608C174.812 99.8199 174.328 100.058 174.049 100.474C173.51 101.449 172.979 102.403 172.454 103.351C171.404 105.239 170.395 107.066 169.434 108.805C167.505 112.274 165.766 115.397 164.301 118.028C162.842 120.625 161.649 122.738 160.81 124.231C160.401 124.94 160.081 125.499 159.849 125.908C159.747 126.085 159.658 126.222 159.59 126.338C159.529 126.433 159.495 126.481 159.495 126.481C159.495 126.481 159.515 126.426 159.563 126.324C159.624 126.201 159.699 126.058 159.788 125.874C160.006 125.458 160.313 124.886 160.695 124.163C161.513 122.657 162.665 120.53 164.083 117.905C165.528 115.26 167.246 112.124 169.154 108.641C170.109 106.896 171.118 105.069 172.161 103.174C172.685 102.226 173.217 101.258 173.763 100.277C174.097 99.7449 174.765 99.4518 175.358 99.4995C175.923 99.4995 176.496 99.4995 177.069 99.4995C186.231 99.5199 194.52 99.5404 200.553 99.554C203.539 99.5745 205.959 99.5949 207.67 99.6086C208.488 99.6222 209.135 99.6358 209.606 99.6426C209.81 99.6495 209.974 99.6563 210.11 99.6631C210.226 99.6631 210.281 99.6767 210.281 99.6835L210.274 99.6767Z" fill="#272F74"/>
<path d="M185.051 112.186C184.417 112.888 184.404 113.904 185.017 114.463C185.631 115.015 186.646 114.899 187.274 114.197C187.908 113.495 187.921 112.479 187.308 111.92C186.694 111.368 185.678 111.484 185.044 112.186H185.051Z" fill="white"/>
<g opacity="0.3">
<path d="M85.5313 102.567C85.2246 102.69 84.8837 102.894 84.8769 103.222C84.8769 103.487 85.1223 103.699 85.3814 103.753C85.6404 103.808 86.5811 103.419 86.8402 103.365C90.5281 102.553 93.5617 103.331 97.0724 104.708L97.1883 104.592C95.784 101.633 89.4988 100.965 85.5313 102.567Z" fill="black"/>
</g>
<path d="M275.464 240.937C275.464 241.032 213.798 241.114 137.756 241.114C61.7131 241.114 0.0337524 241.032 0.0337524 240.937C0.0337524 240.841 61.6858 240.759 137.756 240.759C213.825 240.759 275.464 240.841 275.464 240.937Z" fill="#272F74"/>
<path d="M149.628 44.0478L157.197 44.8841C159.02 42.2895 161.561 40.1505 164.686 38.805C173.676 34.9345 184.097 39.0891 187.968 48.0791C191.838 57.0691 187.684 67.4904 178.694 71.3609C169.704 75.2314 159.282 71.0768 155.412 62.0868C153.798 58.3342 153.584 54.3297 154.533 50.6576V50.6683L149.622 44.0531L149.628 44.0478Z" fill="#FAFAFA"/>
<path d="M149.628 44.0478C149.923 44.4391 151.456 46.4709 154.586 50.6255H154.468C154.485 50.5933 154.527 50.5772 154.565 50.5986C154.592 50.6147 154.608 50.6469 154.597 50.6791C153.97 53.1289 153.729 56.3508 154.715 59.8299C154.967 60.693 155.273 61.5775 155.696 62.4352C155.91 62.8641 156.114 63.3037 156.35 63.7379C156.613 64.156 156.875 64.5795 157.143 65.0084C158.296 66.6702 159.792 68.2356 161.62 69.5007C163.442 70.7712 165.597 71.7469 167.94 72.2561C170.283 72.7654 172.818 72.8297 175.316 72.2883C177.809 71.7469 180.254 70.6479 182.377 69.0182C184.489 67.3886 186.322 65.255 187.496 62.7354C188.708 60.1783 189.356 57.38 189.254 54.646C189.179 51.9174 188.461 49.2745 187.271 46.9694C186.081 44.6643 184.419 42.6754 182.478 41.1905C180.549 39.6948 178.377 38.6656 176.201 38.0813C174.019 37.4969 171.837 37.3629 169.8 37.5666C167.758 37.7811 165.908 38.3922 164.252 39.0998C160.955 40.6115 158.682 42.8952 157.245 44.9162C157.229 44.9377 157.208 44.9484 157.181 44.943C152.388 44.3748 150.083 44.096 149.617 44.0424C150.083 44.0907 152.394 44.3212 157.197 44.809L157.133 44.8358C158.559 42.788 160.837 40.4668 164.166 38.9175C165.833 38.1885 167.71 37.5613 169.773 37.3415C171.832 37.127 174.046 37.2557 176.26 37.8454C178.469 38.4297 180.667 39.4697 182.634 40.9814C184.601 42.4824 186.29 44.4981 187.507 46.8354C188.724 49.1727 189.453 51.8531 189.533 54.6299C189.635 57.4068 188.981 60.248 187.753 62.848C186.558 65.4104 184.698 67.5762 182.548 69.2327C180.393 70.8891 177.906 72.0042 175.375 72.5456C172.84 73.0871 170.261 73.0227 167.886 72.4974C165.506 71.972 163.33 70.9803 161.48 69.6883C159.631 68.3964 158.119 66.8096 156.961 65.121C156.693 64.6867 156.425 64.2579 156.162 63.8344C155.927 63.3948 155.723 62.9499 155.508 62.5156C155.085 61.6472 154.779 60.7519 154.527 59.8781C153.546 56.3561 153.814 53.1021 154.463 50.6362L154.592 50.6898V50.7005C154.57 50.7327 154.527 50.7488 154.495 50.7273C154.485 50.7273 154.479 50.7166 154.474 50.7059C151.413 46.503 149.917 44.4445 149.628 44.0478Z" fill="#272F74"/>
<path d="M165.158 48.776C165.158 48.776 165.168 48.8618 165.174 49.0226C165.174 49.1995 165.185 49.4246 165.19 49.7088C165.195 50.3253 165.206 51.1937 165.222 52.2873C165.238 54.512 165.26 57.6427 165.281 61.3952L165.158 61.2719C168.83 61.2666 173.156 61.2612 177.772 61.2505C177.804 61.2183 177.509 61.5132 177.632 61.3899V60.5322C177.632 60.248 177.632 59.9586 177.632 59.6744C177.632 59.1062 177.632 58.5433 177.632 57.9858C177.632 56.8708 177.632 55.7825 177.632 54.7264C177.632 52.6089 177.643 50.6094 177.648 48.776L177.772 48.8993C174.019 48.8725 170.888 48.851 168.664 48.8403C167.57 48.8242 166.707 48.8189 166.085 48.8082C165.801 48.8028 165.576 48.7974 165.399 48.7921C165.244 48.7921 165.158 48.7814 165.152 48.776C165.152 48.776 165.222 48.7653 165.372 48.7599C165.544 48.7599 165.764 48.7492 166.037 48.7438C166.648 48.7385 167.506 48.7277 168.589 48.7117C170.829 48.6956 173.992 48.6741 177.772 48.6527H177.89V48.776C177.89 50.6094 177.9 52.6089 177.906 54.7264C177.906 55.7879 177.906 56.8761 177.906 57.9858C177.906 58.5433 177.906 59.1062 177.906 59.6744C177.906 59.9586 177.906 60.2427 177.906 60.5322V60.961V61.1754V61.3792V61.3899C178.029 61.2666 177.734 61.5614 177.766 61.5293C173.151 61.5239 168.825 61.5185 165.152 61.5078H165.029V61.3845C165.056 57.5998 165.077 54.4423 165.088 52.2015C165.099 51.124 165.11 50.2663 165.12 49.6498C165.126 49.3764 165.131 49.1566 165.136 48.9851C165.136 48.835 165.147 48.7599 165.152 48.7653L165.158 48.776Z" fill="#272F74"/>
<path d="M176.415 50.8613C176.598 51.0061 174.898 53.4506 172.625 56.3186C172.17 56.8922 171.73 57.439 171.317 57.9376L171.049 58.2646L170.749 57.9912C168.776 56.2167 167.442 54.8551 167.565 54.7157C167.688 54.5763 169.227 55.7021 171.269 57.3908L170.696 57.4444C171.087 56.9297 171.516 56.3722 171.971 55.7986C174.244 52.9306 176.239 50.7166 176.421 50.8613H176.415Z" fill="url(#paint9_linear_216_5508)"/>
</g>
<defs>
<linearGradient id="paint0_linear_216_5508" x1="228.132" y1="196.559" x2="231.717" y2="206.481" gradientUnits="userSpaceOnUse">
<stop offset="0.01" stop-color="#F89922"/>
<stop offset="0.17" stop-color="#F79326"/>
<stop offset="0.4" stop-color="#F58233"/>
<stop offset="0.67" stop-color="#F26548"/>
<stop offset="0.96" stop-color="#EE3E64"/>
<stop offset="1" stop-color="#ED3769"/>
</linearGradient>
<linearGradient id="paint1_linear_216_5508" x1="224.81" y1="168.999" x2="237.992" y2="180.054" gradientUnits="userSpaceOnUse">
<stop offset="0.01" stop-color="#F89922"/>
<stop offset="0.17" stop-color="#F79326"/>
<stop offset="0.4" stop-color="#F58233"/>
<stop offset="0.67" stop-color="#F26548"/>
<stop offset="0.96" stop-color="#EE3E64"/>
<stop offset="1" stop-color="#ED3769"/>
</linearGradient>
<linearGradient id="paint2_linear_216_5508" x1="203.578" y1="174.609" x2="213.31" y2="190.903" gradientUnits="userSpaceOnUse">
<stop offset="0.01" stop-color="#F89922"/>
<stop offset="0.17" stop-color="#F79326"/>
<stop offset="0.4" stop-color="#F58233"/>
<stop offset="0.67" stop-color="#F26548"/>
<stop offset="0.96" stop-color="#EE3E64"/>
<stop offset="1" stop-color="#ED3769"/>
</linearGradient>
<linearGradient id="paint3_linear_216_5508" x1="60.5065" y1="162.584" x2="60.5065" y2="215.264" gradientUnits="userSpaceOnUse">
<stop stop-color="#F26548"/>
<stop offset="1" stop-color="#F58233"/>
</linearGradient>
<linearGradient id="paint4_linear_216_5508" x1="46.8573" y1="186.244" x2="46.8573" y2="213.233" gradientUnits="userSpaceOnUse">
<stop stop-color="#F26548"/>
<stop offset="1" stop-color="#F58233"/>
</linearGradient>
<linearGradient id="paint5_linear_216_5508" x1="34.3301" y1="173.47" x2="34.3301" y2="215.135" gradientUnits="userSpaceOnUse">
<stop stop-color="#F26548"/>
<stop offset="1" stop-color="#F58233"/>
</linearGradient>
<linearGradient id="paint6_linear_216_5508" x1="71.0854" y1="77.1643" x2="117.672" y2="162.631" gradientUnits="userSpaceOnUse">
<stop offset="0.01" stop-color="#F89922"/>
<stop offset="0.17" stop-color="#F79326"/>
<stop offset="0.4" stop-color="#F58233"/>
<stop offset="0.67" stop-color="#F26548"/>
<stop offset="0.96" stop-color="#EE3E64"/>
<stop offset="1" stop-color="#ED3769"/>
</linearGradient>
<linearGradient id="paint7_linear_216_5508" x1="72.4694" y1="82.46" x2="107.299" y2="117.137" gradientUnits="userSpaceOnUse">
<stop offset="0.01" stop-color="#F89922"/>
<stop offset="0.17" stop-color="#F79326"/>
<stop offset="0.4" stop-color="#F58233"/>
<stop offset="0.67" stop-color="#F26548"/>
<stop offset="0.96" stop-color="#EE3E64"/>
<stop offset="1" stop-color="#ED3769"/>
</linearGradient>
<linearGradient id="paint8_linear_216_5508" x1="182.969" y1="151.856" x2="191.007" y2="165.009" gradientUnits="userSpaceOnUse">
<stop offset="0.01" stop-color="#F89922"/>
<stop offset="0.17" stop-color="#F79326"/>
<stop offset="0.4" stop-color="#F58233"/>
<stop offset="0.67" stop-color="#F26548"/>
<stop offset="0.96" stop-color="#EE3E64"/>
<stop offset="1" stop-color="#ED3769"/>
</linearGradient>
<linearGradient id="paint9_linear_216_5508" x1="166.002" y1="53.1726" x2="169.293" y2="59.9992" gradientUnits="userSpaceOnUse">
<stop offset="0.01" stop-color="#F89922"/>
<stop offset="0.17" stop-color="#F79326"/>
<stop offset="0.4" stop-color="#F58233"/>
<stop offset="0.67" stop-color="#F26548"/>
<stop offset="0.96" stop-color="#EE3E64"/>
<stop offset="1" stop-color="#ED3769"/>
</linearGradient>
<clipPath id="clip0_216_5508">
<rect width="275.403" height="242" fill="white" transform="translate(0.0338135)"/>
</clipPath>
</defs>
</svg>
