<svg width="87" height="50" viewBox="0 0 87 50" fill="none" xmlns="http://www.w3.org/2000/svg">
<path d="M28.7041 22.8947H23.8103L35.4428 37.5473H40.2945L28.7041 22.8947Z" fill="#F06B51"/>
<path d="M25.1672 28.3895H20.1478L27.0767 37.5474H32.0531L25.1672 28.3895Z" fill="#F06B51"/>
<path d="M20.2994 32.0142H18.7783C13.4238 32.0142 8.59647 28.7887 6.54737 23.8417C4.49827 18.8948 5.63092 13.2006 9.41716 9.41438C13.2034 5.62816 18.8976 4.49551 23.8446 6.5446C28.7915 8.5937 32.017 13.421 32.017 18.7755C32.0163 19.667 31.9246 20.556 31.7433 21.4289L31.3918 22.6731L35.2334 27.227C35.736 26.5656 36.1472 25.8395 36.4559 25.0682C36.4645 25.047 36.4718 25.0251 36.4776 25.0029C36.6689 24.5313 36.8198 24.0443 36.9287 23.5472C38.9722 15.777 35.8444 7.56778 29.1485 3.12744C22.4526 -1.31289 13.6732 -0.999793 7.3106 3.90624C0.948003 8.81227 -1.58709 17.2234 1.00478 24.8283C3.59665 32.4332 10.7408 37.5455 18.7752 37.5448C19.6837 37.5616 20.5917 37.4939 21.4877 37.3426C21.609 37.324 21.7614 37.296 21.9294 37.2617L22.7786 37.0751L23.3074 36.9476L23.6402 36.8667L23.8175 36.82L20.2994 32.0142Z" fill="url(#paint0_linear_1_3548)"/>
<rect x="57.6942" y="9.15735" width="5.49473" height="5.49473" fill="#272F74"/>
<path d="M78.9937 26.9345L86.507 17.4009H80.4538L76.2705 23.2251L72.0472 17.4009H54.9473V21.3341H57.8307V37.5482H63.1106V21.3493H69.2039L73.5504 26.9345L65.5073 37.5482H71.3972L76.2705 30.6801L81.1469 37.5422H86.9999L78.9937 26.9345Z" fill="#272F74"/>
<path d="M52.7192 17.2134H48.9728V14.0738C48.9437 13.1308 49.1611 12.1959 49.6051 11.3557C50.0267 10.5901 51.1595 10.2073 53.0038 10.2073H53.7151V5.49487H53.0512C49.6325 5.49487 47.1939 6.27977 45.7354 7.84957C44.2769 9.41937 43.5476 11.4799 43.5476 14.031V17.2134H40.2944V21.2295H43.5476V37.0649C43.5427 37.1126 43.5427 37.1607 43.5476 37.2084V37.5474H48.9728V21.2295H54.0312V17.2134H52.7413H52.7192Z" fill="#272F74"/>
<path d="M44.4466 47.8649L44.4075 42.2638H45.02L45.0591 47.8649H44.4466ZM46.3058 47.9236C46.0163 47.9253 45.7315 47.8504 45.4804 47.7064C45.2254 47.5644 45.0103 47.3605 44.8549 47.1135C44.6918 46.8534 44.6074 46.5517 44.6116 46.2448C44.6107 46.2383 44.6107 46.2317 44.6116 46.2252V46.2078L45.046 46.1948V46.2274C45.0446 46.4266 45.1029 46.6218 45.2133 46.7877C45.3214 46.9565 45.471 47.0948 45.6477 47.1895C45.8219 47.2879 46.0188 47.3388 46.2189 47.3372C46.3754 47.3404 46.531 47.3107 46.6754 47.2501C46.8198 47.1895 46.9498 47.0993 47.0573 46.9853C47.273 46.675 47.3875 46.3057 47.3852 45.9278C47.3828 45.5499 47.2637 45.1819 47.0442 44.8743C46.9342 44.7639 46.8026 44.6774 46.6576 44.6202C46.5126 44.563 46.3573 44.5364 46.2015 44.542C46.0019 44.5427 45.8058 44.5951 45.6325 44.6941C45.4567 44.7911 45.3076 44.9298 45.1981 45.098C45.0909 45.2658 45.0358 45.4615 45.0395 45.6605L44.6051 45.6497C44.5946 45.3437 44.6746 45.0415 44.8353 44.7809C44.9886 44.5361 45.2016 44.3344 45.4544 44.1945C45.6486 44.0822 45.8636 44.0102 46.0864 43.9829C46.3092 43.9557 46.5352 43.9738 46.7508 44.036C46.9664 44.0983 47.1673 44.2035 47.3412 44.3453C47.5152 44.4871 47.6587 44.6626 47.7631 44.8613C47.9332 45.1889 48.0169 45.5544 48.0064 45.9233C48.024 46.2976 47.9494 46.6705 47.7892 47.0092C47.6505 47.2881 47.436 47.5223 47.1702 47.6847C46.9081 47.8381 46.6095 47.9184 46.3058 47.9171V47.9236Z" fill="#444E59"/>
<path d="M48.8644 49.433C48.7774 49.4335 48.6903 49.4291 48.6038 49.42C48.5536 49.4151 48.5041 49.4049 48.4561 49.3896V48.8597C48.505 48.878 48.5561 48.8897 48.6081 48.8944C48.6802 48.903 48.7527 48.9074 48.8253 48.9074C48.9599 48.9099 49.0927 48.8761 49.2097 48.8097C49.3164 48.7436 49.4069 48.6546 49.4747 48.5491C49.5474 48.4346 49.605 48.3112 49.6463 48.1821L49.7592 47.8433L48.4213 44.0252H49.0577L50.1437 47.296H50.059L51.0668 44.0078H51.6945L50.3283 48.1451C50.2566 48.3668 50.1627 48.5808 50.0481 48.7837C49.9439 48.9732 49.7947 49.1343 49.6137 49.2528C49.3864 49.3835 49.1263 49.4461 48.8644 49.433Z" fill="#444E59"/>
<path d="M62.709 43.1914C62.6757 43.1891 62.6423 43.1891 62.6091 43.1914C62.2144 43.1902 61.8283 43.3058 61.4992 43.5236L61.4818 43.5128V43.2847H60.4501V47.7761H61.3189H61.4753V44.4271C61.7349 44.2269 62.0532 44.1178 62.381 44.1166C62.4589 44.1151 62.5368 44.1217 62.6134 44.1361C63.1238 44.2555 63.3084 44.6812 63.3084 45.1265V47.7761H64.3401V44.9527C64.3401 44.3772 64.175 43.9146 63.821 43.6236C63.5082 43.3607 63.1172 43.2087 62.709 43.1914Z" fill="#444E59"/>
<path d="M58.6447 43.2827V47.7762H59.6786V43.2827H58.6447Z" fill="#444E59"/>
<path d="M67.0791 43.1852C65.9084 43.1852 64.8854 44.1147 64.8854 45.5394C64.8849 45.6923 64.898 45.8449 64.9245 45.9955C64.9245 46.0498 64.944 46.1041 64.9571 46.1541L64.9701 46.2062L64.9831 46.2583C64.9962 46.3017 65.0092 46.3452 65.0244 46.3886C65.1677 46.8203 65.4428 47.196 65.8111 47.463C66.1793 47.7299 66.6221 47.8745 67.0769 47.8763H67.1681C67.5223 47.8701 67.8677 47.7652 68.1655 47.5734C68.4633 47.3815 68.7016 47.1104 68.8535 46.7904C68.9004 46.6937 68.9397 46.5935 68.9708 46.4907H68.0239C67.9069 46.6771 67.7352 46.8228 67.5322 46.9079C67.3293 46.993 67.1051 47.0134 66.8901 46.9663C66.6577 46.9224 66.4451 46.8061 66.2828 46.6341C66.1205 46.4621 66.0168 46.2431 65.9866 46.0086C65.9764 45.9506 65.9677 45.892 65.9605 45.8326H69.1446C69.1628 45.6849 69.1715 45.5362 69.1707 45.3874C69.1707 43.941 68.139 43.1852 67.0791 43.1852ZM65.967 45.0638C66.0003 44.7925 66.1314 44.5427 66.3357 44.3612C66.5401 44.1797 66.8036 44.0789 67.0769 44.0778C67.3529 44.07 67.6214 44.1676 67.828 44.3508C68.0346 44.5339 68.1636 44.7889 68.1889 45.0638H65.967Z" fill="#444E59"/>
<path d="M55.7411 43.2827H53.7646V49.6701H54.8224V47.546H54.8398C55.1795 47.7603 55.5741 47.8712 55.9757 47.8653C57.0942 47.8653 58.039 46.9705 58.039 45.5914C58.039 44.2123 57.0617 43.2827 55.7411 43.2827ZM55.7411 46.9249C55.4051 46.9221 55.0793 46.8092 54.8137 46.6034V44.2036H55.6977C56.4926 44.2036 56.9661 44.7487 56.9661 45.5436C56.9661 46.3385 56.51 46.9249 55.7585 46.9249H55.7411Z" fill="#444E59"/>
<path d="M80.2709 43.1848C79.8761 43.1848 79.4897 43.2995 79.1589 43.515H79.1437V41.4365H78.1077V47.7739H80.0407C81.3439 47.7739 82.2887 46.7836 82.2887 45.4088C82.2887 44.034 81.3656 43.1848 80.2709 43.1848ZM80.0059 46.8769H79.1372V44.4271C79.3967 44.2266 79.7149 44.1167 80.0429 44.1144C80.7857 44.1144 81.2396 44.6943 81.2396 45.4631C81.2396 46.2319 80.7835 46.8726 80.0059 46.8726V46.8769Z" fill="#444E59"/>
<path d="M84.9625 45.0828C84.337 44.946 83.807 44.9547 83.807 44.5355C83.807 44.225 84.098 44.0881 84.5433 44.0881C85.092 44.1053 85.6273 44.2623 86.0984 44.5442V43.5386C85.6156 43.2984 85.0826 43.1763 84.5433 43.1825C83.5355 43.1825 82.7732 43.6755 82.7645 44.6159C82.7645 45.4281 83.3118 45.73 84.1154 45.919C84.767 46.0645 85.2948 46.0471 85.2948 46.4945C85.2948 46.8333 84.9972 46.9788 84.5259 46.9788C83.9459 46.9635 83.3812 46.79 82.8926 46.4771V47.5087C83.3947 47.7577 83.9481 47.8856 84.5085 47.8823C85.5011 47.8823 86.3395 47.4175 86.3395 46.4033C86.3395 45.5389 85.7661 45.2587 84.9625 45.0828Z" fill="#444E59"/>
<path d="M76.3139 43.5064L76.2965 43.5172C75.8961 43.2573 75.4174 43.1459 74.9434 43.2023C73.7184 43.3717 73.1146 44.4902 73.0494 45.2981C72.995 45.7747 73.0865 46.2566 73.3118 46.68C73.5371 47.1035 73.8857 47.4486 74.3113 47.6698C74.6253 47.8211 74.973 47.8888 75.3208 47.8663C75.6685 47.8439 76.0046 47.732 76.2965 47.5416L76.3139 47.5525V47.7805H77.3499V43.2783H76.3139V43.5064ZM76.3139 46.6316C76.0262 46.8506 75.6691 46.9586 75.3083 46.9357C75.0211 46.9061 74.7539 46.775 74.5549 46.566C74.3558 46.3569 74.2378 46.0837 74.2223 45.7955C74.1702 45.3763 74.2223 44.601 74.8218 44.2752C75.5863 43.8539 76.3161 44.4359 76.3161 44.4359L76.3139 46.6316Z" fill="#444E59"/>
<path d="M72.1697 46.701V41.4365H71.138V46.7466C71.138 47.7022 71.8048 47.7761 72.0068 47.7761H72.8625V46.8748H72.174" fill="#444E59"/>
<path d="M58.6494 42.2032H59.681V43.2804L60.4152 42.5137V41.4365H59.3813L58.6494 42.2032Z" fill="#444E59"/>
<defs>
<linearGradient id="paint0_linear_1_3548" x1="-6.58231" y1="11.7456" x2="11.876" y2="43.7225" gradientUnits="userSpaceOnUse">
<stop offset="0.01" stop-color="#F89922"/>
<stop offset="0.17" stop-color="#F79326"/>
<stop offset="0.4" stop-color="#F58233"/>
<stop offset="0.67" stop-color="#F26548"/>
<stop offset="0.96" stop-color="#EE3E64"/>
<stop offset="1" stop-color="#ED3769"/>
</linearGradient>
</defs>
</svg>
